M48
; DRILL file {KiCad 5.1.10} date Thu May 27 14:18:06 2021
; FORMAT={-:-/ absolute / metric / decimal}
; #@! TF.CreationDate,2021-05-27T14:18:06+02:00
; #@! TF.GenerationSoftware,Kicad,Pcbnew,5.1.10
; #@! TF.FileFunction,Plated,1,2,PTH
FMAT,2
METRIC
T1C0.381
T2C0.500
T3C1.000
T4C1.016
T5C1.100
T6C3.500
%
G90
G05
T1
X105.41Y-88.773
X105.918Y-87.931
X105.936Y-86.85
X106.807Y-84.121
X106.807Y-84.883
X106.807Y-87.931
X106.807Y-90.471
X106.807Y-91.233
X110.109Y-84.121
X110.234Y-87.045
X110.236Y-90.598
X110.236Y-87.934
X110.617Y-82.851
X110.617Y-83.613
X110.998Y-86.233
X110.998Y-90.598
X110.998Y-91.36
X111.379Y-82.851
X111.379Y-83.613
X111.76Y-90.598
X111.76Y-91.36
X112.014Y-87.884
X112.078Y-89.281
X112.522Y-79.168
X112.522Y-80.057
X112.649Y-87.249
X113.411Y-79.168
X113.411Y-80.057
X114.3Y-79.168
X114.3Y-80.057
X120.269Y-93.345
X121.92Y-89.154
X122.047Y-87.757
X122.682Y-86.995
X122.936Y-83.693
X123.571Y-86.614
X126.873Y-92.075
X126.873Y-94.615
X127.127Y-87.757
X127.508Y-82.169
X127.889Y-87.122
X128.27Y-100.076
X128.651Y-86.487
T2
X102.975Y-77.6
X102.975Y-97.71
X103.744Y-75.744
X103.744Y-79.456
X103.744Y-95.854
X103.744Y-99.566
X105.6Y-74.975
X105.6Y-80.225
X105.6Y-95.085
X105.6Y-100.335
X107.456Y-75.744
X107.456Y-79.456
X107.456Y-95.854
X107.456Y-99.566
X108.225Y-77.6
X108.225Y-97.71
T3
X134.62Y-78.66
X134.62Y-81.2
X134.62Y-83.74
X134.62Y-86.28
X134.62Y-88.82
X134.62Y-91.36
X134.62Y-93.9
X134.62Y-96.44
T4
X113.03Y-95.805
X113.03Y-98.345
X115.57Y-95.805
X115.57Y-98.345
X118.11Y-95.805
X118.11Y-98.345
T5
X129.159Y-75.501
X131.699Y-75.501
X134.239Y-75.501
T6
X105.6Y-77.6
X105.6Y-97.71
T0
M30
