G04 #@! TF.GenerationSoftware,KiCad,Pcbnew,5.1.10*
G04 #@! TF.CreationDate,2021-05-27T14:54:43+02:00*
G04 #@! TF.ProjectId,USB-PD-Breakout,5553422d-5044-42d4-9272-65616b6f7574,rev?*
G04 #@! TF.SameCoordinates,Original*
G04 #@! TF.FileFunction,Soldermask,Bot*
G04 #@! TF.FilePolarity,Negative*
%FSLAX46Y46*%
G04 Gerber Fmt 4.6, Leading zero omitted, Abs format (unit mm)*
G04 Created by KiCad (PCBNEW 5.1.10) date 2021-05-27 14:54:43*
%MOMM*%
%LPD*%
G01*
G04 APERTURE LIST*
%ADD10O,3.000000X1.500000*%
%ADD11O,2.500000X1.500000*%
%ADD12O,2.127200X2.127200*%
%ADD13C,7.400000*%
%ADD14C,1.000000*%
%ADD15O,2.100000X2.100000*%
%ADD16C,2.500000*%
G04 APERTURE END LIST*
D10*
X103370000Y-91920000D03*
X103370000Y-83280000D03*
D11*
X108730000Y-91920000D03*
X108730000Y-83280000D03*
G36*
G01*
X111966400Y-96668600D02*
X111966400Y-94941400D01*
G75*
G02*
X112166400Y-94741400I200000J0D01*
G01*
X113893600Y-94741400D01*
G75*
G02*
X114093600Y-94941400I0J-200000D01*
G01*
X114093600Y-96668600D01*
G75*
G02*
X113893600Y-96868600I-200000J0D01*
G01*
X112166400Y-96868600D01*
G75*
G02*
X111966400Y-96668600I0J200000D01*
G01*
G37*
D12*
X113030000Y-98345000D03*
X115570000Y-95805000D03*
X115570000Y-98345000D03*
X118110000Y-95805000D03*
X118110000Y-98345000D03*
D13*
X105600000Y-97710000D03*
D14*
X108225000Y-97710000D03*
X107456155Y-99566155D03*
X105600000Y-100335000D03*
X103743845Y-99566155D03*
X102975000Y-97710000D03*
X103743845Y-95853845D03*
X105600000Y-95085000D03*
X107456155Y-95853845D03*
D13*
X105600000Y-77600000D03*
D14*
X108225000Y-77600000D03*
X107456155Y-79456155D03*
X105600000Y-80225000D03*
X103743845Y-79456155D03*
X102975000Y-77600000D03*
X103743845Y-75743845D03*
X105600000Y-74975000D03*
X107456155Y-75743845D03*
D15*
X134620000Y-96440000D03*
X134620000Y-93900000D03*
X134620000Y-91360000D03*
X134620000Y-88820000D03*
X134620000Y-86280000D03*
X134620000Y-83740000D03*
X134620000Y-81200000D03*
G36*
G01*
X133570000Y-79510000D02*
X133570000Y-77810000D01*
G75*
G02*
X133770000Y-77610000I200000J0D01*
G01*
X135470000Y-77610000D01*
G75*
G02*
X135670000Y-77810000I0J-200000D01*
G01*
X135670000Y-79510000D01*
G75*
G02*
X135470000Y-79710000I-200000J0D01*
G01*
X133770000Y-79710000D01*
G75*
G02*
X133570000Y-79510000I0J200000D01*
G01*
G37*
D16*
X129159000Y-75501500D03*
X131699000Y-75501500D03*
X134239000Y-75501500D03*
M02*
