G04 #@! TF.GenerationSoftware,KiCad,Pcbnew,5.1.10*
G04 #@! TF.CreationDate,2021-05-27T14:54:43+02:00*
G04 #@! TF.ProjectId,USB-PD-Breakout,5553422d-5044-42d4-9272-65616b6f7574,rev?*
G04 #@! TF.SameCoordinates,Original*
G04 #@! TF.FileFunction,Legend,Bot*
G04 #@! TF.FilePolarity,Positive*
%FSLAX46Y46*%
G04 Gerber Fmt 4.6, Leading zero omitted, Abs format (unit mm)*
G04 Created by KiCad (PCBNEW 5.1.10) date 2021-05-27 14:54:43*
%MOMM*%
%LPD*%
G01*
G04 APERTURE LIST*
%ADD10C,0.125000*%
%ADD11C,0.203200*%
%ADD12O,3.000000X1.500000*%
%ADD13O,2.500000X1.500000*%
%ADD14O,2.127200X2.127200*%
%ADD15C,7.400000*%
%ADD16C,1.000000*%
%ADD17O,2.100000X2.100000*%
%ADD18C,2.500000*%
G04 APERTURE END LIST*
D10*
X130023911Y-77418380D02*
X129952483Y-77442190D01*
X129833435Y-77442190D01*
X129785816Y-77418380D01*
X129762007Y-77394571D01*
X129738197Y-77346952D01*
X129738197Y-77299333D01*
X129762007Y-77251714D01*
X129785816Y-77227904D01*
X129833435Y-77204095D01*
X129928673Y-77180285D01*
X129976292Y-77156476D01*
X130000102Y-77132666D01*
X130023911Y-77085047D01*
X130023911Y-77037428D01*
X130000102Y-76989809D01*
X129976292Y-76966000D01*
X129928673Y-76942190D01*
X129809626Y-76942190D01*
X129738197Y-76966000D01*
X129357245Y-77180285D02*
X129285816Y-77204095D01*
X129262007Y-77227904D01*
X129238197Y-77275523D01*
X129238197Y-77346952D01*
X129262007Y-77394571D01*
X129285816Y-77418380D01*
X129333435Y-77442190D01*
X129523911Y-77442190D01*
X129523911Y-76942190D01*
X129357245Y-76942190D01*
X129309626Y-76966000D01*
X129285816Y-76989809D01*
X129262007Y-77037428D01*
X129262007Y-77085047D01*
X129285816Y-77132666D01*
X129309626Y-77156476D01*
X129357245Y-77180285D01*
X129523911Y-77180285D01*
X129023911Y-76942190D02*
X129023911Y-77346952D01*
X129000102Y-77394571D01*
X128976292Y-77418380D01*
X128928673Y-77442190D01*
X128833435Y-77442190D01*
X128785816Y-77418380D01*
X128762007Y-77394571D01*
X128738197Y-77346952D01*
X128738197Y-76942190D01*
X128238197Y-77442190D02*
X128523911Y-77442190D01*
X128381054Y-77442190D02*
X128381054Y-76942190D01*
X128428673Y-77013619D01*
X128476292Y-77061238D01*
X128523911Y-77085047D01*
X132462311Y-77418380D02*
X132390883Y-77442190D01*
X132271835Y-77442190D01*
X132224216Y-77418380D01*
X132200407Y-77394571D01*
X132176597Y-77346952D01*
X132176597Y-77299333D01*
X132200407Y-77251714D01*
X132224216Y-77227904D01*
X132271835Y-77204095D01*
X132367073Y-77180285D01*
X132414692Y-77156476D01*
X132438502Y-77132666D01*
X132462311Y-77085047D01*
X132462311Y-77037428D01*
X132438502Y-76989809D01*
X132414692Y-76966000D01*
X132367073Y-76942190D01*
X132248026Y-76942190D01*
X132176597Y-76966000D01*
X131795645Y-77180285D02*
X131724216Y-77204095D01*
X131700407Y-77227904D01*
X131676597Y-77275523D01*
X131676597Y-77346952D01*
X131700407Y-77394571D01*
X131724216Y-77418380D01*
X131771835Y-77442190D01*
X131962311Y-77442190D01*
X131962311Y-76942190D01*
X131795645Y-76942190D01*
X131748026Y-76966000D01*
X131724216Y-76989809D01*
X131700407Y-77037428D01*
X131700407Y-77085047D01*
X131724216Y-77132666D01*
X131748026Y-77156476D01*
X131795645Y-77180285D01*
X131962311Y-77180285D01*
X131462311Y-76942190D02*
X131462311Y-77346952D01*
X131438502Y-77394571D01*
X131414692Y-77418380D01*
X131367073Y-77442190D01*
X131271835Y-77442190D01*
X131224216Y-77418380D01*
X131200407Y-77394571D01*
X131176597Y-77346952D01*
X131176597Y-76942190D01*
X130962311Y-76989809D02*
X130938502Y-76966000D01*
X130890883Y-76942190D01*
X130771835Y-76942190D01*
X130724216Y-76966000D01*
X130700407Y-76989809D01*
X130676597Y-77037428D01*
X130676597Y-77085047D01*
X130700407Y-77156476D01*
X130986121Y-77442190D01*
X130676597Y-77442190D01*
X134665797Y-76966000D02*
X134713416Y-76942190D01*
X134784845Y-76942190D01*
X134856273Y-76966000D01*
X134903892Y-77013619D01*
X134927702Y-77061238D01*
X134951511Y-77156476D01*
X134951511Y-77227904D01*
X134927702Y-77323142D01*
X134903892Y-77370761D01*
X134856273Y-77418380D01*
X134784845Y-77442190D01*
X134737226Y-77442190D01*
X134665797Y-77418380D01*
X134641988Y-77394571D01*
X134641988Y-77227904D01*
X134737226Y-77227904D01*
X134427702Y-77442190D02*
X134427702Y-76942190D01*
X134141988Y-77442190D01*
X134141988Y-76942190D01*
X133903892Y-77442190D02*
X133903892Y-76942190D01*
X133784845Y-76942190D01*
X133713416Y-76966000D01*
X133665797Y-77013619D01*
X133641988Y-77061238D01*
X133618178Y-77156476D01*
X133618178Y-77227904D01*
X133641988Y-77323142D01*
X133665797Y-77370761D01*
X133713416Y-77418380D01*
X133784845Y-77442190D01*
X133903892Y-77442190D01*
D11*
X132486158Y-83263619D02*
X132147491Y-84279619D01*
X131808824Y-83263619D01*
X131470158Y-84279619D02*
X131470158Y-83263619D01*
X131228253Y-83263619D01*
X131083110Y-83312000D01*
X130986348Y-83408761D01*
X130937967Y-83505523D01*
X130889586Y-83699047D01*
X130889586Y-83844190D01*
X130937967Y-84037714D01*
X130986348Y-84134476D01*
X131083110Y-84231238D01*
X131228253Y-84279619D01*
X131470158Y-84279619D01*
X130454158Y-84279619D02*
X130454158Y-83263619D01*
X130212253Y-83263619D01*
X130067110Y-83312000D01*
X129970348Y-83408761D01*
X129921967Y-83505523D01*
X129873586Y-83699047D01*
X129873586Y-83844190D01*
X129921967Y-84037714D01*
X129970348Y-84134476D01*
X130067110Y-84231238D01*
X130212253Y-84279619D01*
X130454158Y-84279619D01*
X131808824Y-85852000D02*
X131905586Y-85803619D01*
X132050729Y-85803619D01*
X132195872Y-85852000D01*
X132292634Y-85948761D01*
X132341015Y-86045523D01*
X132389396Y-86239047D01*
X132389396Y-86384190D01*
X132341015Y-86577714D01*
X132292634Y-86674476D01*
X132195872Y-86771238D01*
X132050729Y-86819619D01*
X131953967Y-86819619D01*
X131808824Y-86771238D01*
X131760443Y-86722857D01*
X131760443Y-86384190D01*
X131953967Y-86384190D01*
X131325015Y-86819619D02*
X131325015Y-85803619D01*
X130744443Y-86819619D01*
X130744443Y-85803619D01*
X130260634Y-86819619D02*
X130260634Y-85803619D01*
X130018729Y-85803619D01*
X129873586Y-85852000D01*
X129776824Y-85948761D01*
X129728443Y-86045523D01*
X129680062Y-86239047D01*
X129680062Y-86384190D01*
X129728443Y-86577714D01*
X129776824Y-86674476D01*
X129873586Y-86771238D01*
X130018729Y-86819619D01*
X130260634Y-86819619D01*
X132389396Y-94391238D02*
X132244253Y-94439619D01*
X132002348Y-94439619D01*
X131905586Y-94391238D01*
X131857205Y-94342857D01*
X131808824Y-94246095D01*
X131808824Y-94149333D01*
X131857205Y-94052571D01*
X131905586Y-94004190D01*
X132002348Y-93955809D01*
X132195872Y-93907428D01*
X132292634Y-93859047D01*
X132341015Y-93810666D01*
X132389396Y-93713904D01*
X132389396Y-93617142D01*
X132341015Y-93520380D01*
X132292634Y-93472000D01*
X132195872Y-93423619D01*
X131953967Y-93423619D01*
X131808824Y-93472000D01*
X131373396Y-94439619D02*
X131373396Y-93423619D01*
X131131491Y-93423619D01*
X130986348Y-93472000D01*
X130889586Y-93568761D01*
X130841205Y-93665523D01*
X130792824Y-93859047D01*
X130792824Y-94004190D01*
X130841205Y-94197714D01*
X130889586Y-94294476D01*
X130986348Y-94391238D01*
X131131491Y-94439619D01*
X131373396Y-94439619D01*
X130405777Y-94149333D02*
X129921967Y-94149333D01*
X130502539Y-94439619D02*
X130163872Y-93423619D01*
X129825205Y-94439619D01*
X132341015Y-89359619D02*
X132341015Y-88343619D01*
X131857205Y-89359619D02*
X131857205Y-88343619D01*
X131276634Y-89359619D01*
X131276634Y-88343619D01*
X130937967Y-88343619D02*
X130357396Y-88343619D01*
X130647681Y-89359619D02*
X130647681Y-88343619D01*
X132486158Y-80723619D02*
X132147491Y-81739619D01*
X131808824Y-80723619D01*
X131470158Y-81739619D02*
X131470158Y-80723619D01*
X131083110Y-80723619D01*
X130986348Y-80772000D01*
X130937967Y-80820380D01*
X130889586Y-80917142D01*
X130889586Y-81062285D01*
X130937967Y-81159047D01*
X130986348Y-81207428D01*
X131083110Y-81255809D01*
X131470158Y-81255809D01*
X130454158Y-80723619D02*
X130454158Y-81546095D01*
X130405777Y-81642857D01*
X130357396Y-81691238D01*
X130260634Y-81739619D01*
X130067110Y-81739619D01*
X129970348Y-81691238D01*
X129921967Y-81642857D01*
X129873586Y-81546095D01*
X129873586Y-80723619D01*
X132867158Y-78183619D02*
X132528491Y-79199619D01*
X132189824Y-78183619D01*
X131512491Y-78667428D02*
X131367348Y-78715809D01*
X131318967Y-78764190D01*
X131270586Y-78860952D01*
X131270586Y-79006095D01*
X131318967Y-79102857D01*
X131367348Y-79151238D01*
X131464110Y-79199619D01*
X131851158Y-79199619D01*
X131851158Y-78183619D01*
X131512491Y-78183619D01*
X131415729Y-78232000D01*
X131367348Y-78280380D01*
X131318967Y-78377142D01*
X131318967Y-78473904D01*
X131367348Y-78570666D01*
X131415729Y-78619047D01*
X131512491Y-78667428D01*
X131851158Y-78667428D01*
X130835158Y-78183619D02*
X130835158Y-79006095D01*
X130786777Y-79102857D01*
X130738396Y-79151238D01*
X130641634Y-79199619D01*
X130448110Y-79199619D01*
X130351348Y-79151238D01*
X130302967Y-79102857D01*
X130254586Y-79006095D01*
X130254586Y-78183619D01*
X129819158Y-79151238D02*
X129674015Y-79199619D01*
X129432110Y-79199619D01*
X129335348Y-79151238D01*
X129286967Y-79102857D01*
X129238586Y-79006095D01*
X129238586Y-78909333D01*
X129286967Y-78812571D01*
X129335348Y-78764190D01*
X129432110Y-78715809D01*
X129625634Y-78667428D01*
X129722396Y-78619047D01*
X129770777Y-78570666D01*
X129819158Y-78473904D01*
X129819158Y-78377142D01*
X129770777Y-78280380D01*
X129722396Y-78232000D01*
X129625634Y-78183619D01*
X129383729Y-78183619D01*
X129238586Y-78232000D01*
X129045062Y-79296380D02*
X128270967Y-79296380D01*
X128077443Y-78909333D02*
X127593634Y-78909333D01*
X128174205Y-79199619D02*
X127835539Y-78183619D01*
X127496872Y-79199619D01*
X132389396Y-91851238D02*
X132244253Y-91899619D01*
X132002348Y-91899619D01*
X131905586Y-91851238D01*
X131857205Y-91802857D01*
X131808824Y-91706095D01*
X131808824Y-91609333D01*
X131857205Y-91512571D01*
X131905586Y-91464190D01*
X132002348Y-91415809D01*
X132195872Y-91367428D01*
X132292634Y-91319047D01*
X132341015Y-91270666D01*
X132389396Y-91173904D01*
X132389396Y-91077142D01*
X132341015Y-90980380D01*
X132292634Y-90932000D01*
X132195872Y-90883619D01*
X131953967Y-90883619D01*
X131808824Y-90932000D01*
X130792824Y-91802857D02*
X130841205Y-91851238D01*
X130986348Y-91899619D01*
X131083110Y-91899619D01*
X131228253Y-91851238D01*
X131325015Y-91754476D01*
X131373396Y-91657714D01*
X131421777Y-91464190D01*
X131421777Y-91319047D01*
X131373396Y-91125523D01*
X131325015Y-91028761D01*
X131228253Y-90932000D01*
X131083110Y-90883619D01*
X130986348Y-90883619D01*
X130841205Y-90932000D01*
X130792824Y-90980380D01*
X129873586Y-91899619D02*
X130357396Y-91899619D01*
X130357396Y-90883619D01*
X131808824Y-96012000D02*
X131905586Y-95963619D01*
X132050729Y-95963619D01*
X132195872Y-96012000D01*
X132292634Y-96108761D01*
X132341015Y-96205523D01*
X132389396Y-96399047D01*
X132389396Y-96544190D01*
X132341015Y-96737714D01*
X132292634Y-96834476D01*
X132195872Y-96931238D01*
X132050729Y-96979619D01*
X131953967Y-96979619D01*
X131808824Y-96931238D01*
X131760443Y-96882857D01*
X131760443Y-96544190D01*
X131953967Y-96544190D01*
X131325015Y-96979619D02*
X131325015Y-95963619D01*
X130744443Y-96979619D01*
X130744443Y-95963619D01*
X130260634Y-96979619D02*
X130260634Y-95963619D01*
X130018729Y-95963619D01*
X129873586Y-96012000D01*
X129776824Y-96108761D01*
X129728443Y-96205523D01*
X129680062Y-96399047D01*
X129680062Y-96544190D01*
X129728443Y-96737714D01*
X129776824Y-96834476D01*
X129873586Y-96931238D01*
X130018729Y-96979619D01*
X130260634Y-96979619D01*
X126626015Y-75237219D02*
X126626015Y-76059695D01*
X126577634Y-76156457D01*
X126529253Y-76204838D01*
X126432491Y-76253219D01*
X126238967Y-76253219D01*
X126142205Y-76204838D01*
X126093824Y-76156457D01*
X126045443Y-76059695D01*
X126045443Y-75237219D01*
X125610015Y-76204838D02*
X125464872Y-76253219D01*
X125222967Y-76253219D01*
X125126205Y-76204838D01*
X125077824Y-76156457D01*
X125029443Y-76059695D01*
X125029443Y-75962933D01*
X125077824Y-75866171D01*
X125126205Y-75817790D01*
X125222967Y-75769409D01*
X125416491Y-75721028D01*
X125513253Y-75672647D01*
X125561634Y-75624266D01*
X125610015Y-75527504D01*
X125610015Y-75430742D01*
X125561634Y-75333980D01*
X125513253Y-75285600D01*
X125416491Y-75237219D01*
X125174586Y-75237219D01*
X125029443Y-75285600D01*
X124255348Y-75721028D02*
X124110205Y-75769409D01*
X124061824Y-75817790D01*
X124013443Y-75914552D01*
X124013443Y-76059695D01*
X124061824Y-76156457D01*
X124110205Y-76204838D01*
X124206967Y-76253219D01*
X124594015Y-76253219D01*
X124594015Y-75237219D01*
X124255348Y-75237219D01*
X124158586Y-75285600D01*
X124110205Y-75333980D01*
X124061824Y-75430742D01*
X124061824Y-75527504D01*
X124110205Y-75624266D01*
X124158586Y-75672647D01*
X124255348Y-75721028D01*
X124594015Y-75721028D01*
X122803920Y-76253219D02*
X122803920Y-75237219D01*
X122416872Y-75237219D01*
X122320110Y-75285600D01*
X122271729Y-75333980D01*
X122223348Y-75430742D01*
X122223348Y-75575885D01*
X122271729Y-75672647D01*
X122320110Y-75721028D01*
X122416872Y-75769409D01*
X122803920Y-75769409D01*
X121642777Y-76253219D02*
X121739539Y-76204838D01*
X121787920Y-76156457D01*
X121836300Y-76059695D01*
X121836300Y-75769409D01*
X121787920Y-75672647D01*
X121739539Y-75624266D01*
X121642777Y-75575885D01*
X121497634Y-75575885D01*
X121400872Y-75624266D01*
X121352491Y-75672647D01*
X121304110Y-75769409D01*
X121304110Y-76059695D01*
X121352491Y-76156457D01*
X121400872Y-76204838D01*
X121497634Y-76253219D01*
X121642777Y-76253219D01*
X120965443Y-75575885D02*
X120771920Y-76253219D01*
X120578396Y-75769409D01*
X120384872Y-76253219D01*
X120191348Y-75575885D01*
X119417253Y-76204838D02*
X119514015Y-76253219D01*
X119707539Y-76253219D01*
X119804300Y-76204838D01*
X119852681Y-76108076D01*
X119852681Y-75721028D01*
X119804300Y-75624266D01*
X119707539Y-75575885D01*
X119514015Y-75575885D01*
X119417253Y-75624266D01*
X119368872Y-75721028D01*
X119368872Y-75817790D01*
X119852681Y-75914552D01*
X118933443Y-76253219D02*
X118933443Y-75575885D01*
X118933443Y-75769409D02*
X118885062Y-75672647D01*
X118836681Y-75624266D01*
X118739920Y-75575885D01*
X118643158Y-75575885D01*
X118304491Y-76253219D02*
X118304491Y-75237219D01*
X118062586Y-75237219D01*
X117917443Y-75285600D01*
X117820681Y-75382361D01*
X117772300Y-75479123D01*
X117723920Y-75672647D01*
X117723920Y-75817790D01*
X117772300Y-76011314D01*
X117820681Y-76108076D01*
X117917443Y-76204838D01*
X118062586Y-76253219D01*
X118304491Y-76253219D01*
X116901443Y-76204838D02*
X116998205Y-76253219D01*
X117191729Y-76253219D01*
X117288491Y-76204838D01*
X117336872Y-76108076D01*
X117336872Y-75721028D01*
X117288491Y-75624266D01*
X117191729Y-75575885D01*
X116998205Y-75575885D01*
X116901443Y-75624266D01*
X116853062Y-75721028D01*
X116853062Y-75817790D01*
X117336872Y-75914552D01*
X116272491Y-76253219D02*
X116369253Y-76204838D01*
X116417634Y-76108076D01*
X116417634Y-75237219D01*
X115885443Y-76253219D02*
X115885443Y-75575885D01*
X115885443Y-75237219D02*
X115933824Y-75285600D01*
X115885443Y-75333980D01*
X115837062Y-75285600D01*
X115885443Y-75237219D01*
X115885443Y-75333980D01*
X115498396Y-75575885D02*
X115256491Y-76253219D01*
X115014586Y-75575885D01*
X114240491Y-76204838D02*
X114337253Y-76253219D01*
X114530777Y-76253219D01*
X114627539Y-76204838D01*
X114675920Y-76108076D01*
X114675920Y-75721028D01*
X114627539Y-75624266D01*
X114530777Y-75575885D01*
X114337253Y-75575885D01*
X114240491Y-75624266D01*
X114192110Y-75721028D01*
X114192110Y-75817790D01*
X114675920Y-75914552D01*
X113756681Y-76253219D02*
X113756681Y-75575885D01*
X113756681Y-75769409D02*
X113708300Y-75672647D01*
X113659920Y-75624266D01*
X113563158Y-75575885D01*
X113466396Y-75575885D01*
X113224491Y-75575885D02*
X112982586Y-76253219D01*
X112740681Y-75575885D02*
X112982586Y-76253219D01*
X113079348Y-76495123D01*
X113127729Y-76543504D01*
X113224491Y-76591885D01*
X126287348Y-77448228D02*
X126142205Y-77496609D01*
X126093824Y-77544990D01*
X126045443Y-77641752D01*
X126045443Y-77786895D01*
X126093824Y-77883657D01*
X126142205Y-77932038D01*
X126238967Y-77980419D01*
X126626015Y-77980419D01*
X126626015Y-76964419D01*
X126287348Y-76964419D01*
X126190586Y-77012800D01*
X126142205Y-77061180D01*
X126093824Y-77157942D01*
X126093824Y-77254704D01*
X126142205Y-77351466D01*
X126190586Y-77399847D01*
X126287348Y-77448228D01*
X126626015Y-77448228D01*
X125610015Y-77980419D02*
X125610015Y-77303085D01*
X125610015Y-77496609D02*
X125561634Y-77399847D01*
X125513253Y-77351466D01*
X125416491Y-77303085D01*
X125319729Y-77303085D01*
X124594015Y-77932038D02*
X124690777Y-77980419D01*
X124884300Y-77980419D01*
X124981062Y-77932038D01*
X125029443Y-77835276D01*
X125029443Y-77448228D01*
X124981062Y-77351466D01*
X124884300Y-77303085D01*
X124690777Y-77303085D01*
X124594015Y-77351466D01*
X124545634Y-77448228D01*
X124545634Y-77544990D01*
X125029443Y-77641752D01*
X123674777Y-77980419D02*
X123674777Y-77448228D01*
X123723158Y-77351466D01*
X123819920Y-77303085D01*
X124013443Y-77303085D01*
X124110205Y-77351466D01*
X123674777Y-77932038D02*
X123771539Y-77980419D01*
X124013443Y-77980419D01*
X124110205Y-77932038D01*
X124158586Y-77835276D01*
X124158586Y-77738514D01*
X124110205Y-77641752D01*
X124013443Y-77593371D01*
X123771539Y-77593371D01*
X123674777Y-77544990D01*
X123190967Y-77980419D02*
X123190967Y-76964419D01*
X123094205Y-77593371D02*
X122803920Y-77980419D01*
X122803920Y-77303085D02*
X123190967Y-77690133D01*
X122223348Y-77980419D02*
X122320110Y-77932038D01*
X122368491Y-77883657D01*
X122416872Y-77786895D01*
X122416872Y-77496609D01*
X122368491Y-77399847D01*
X122320110Y-77351466D01*
X122223348Y-77303085D01*
X122078205Y-77303085D01*
X121981443Y-77351466D01*
X121933062Y-77399847D01*
X121884681Y-77496609D01*
X121884681Y-77786895D01*
X121933062Y-77883657D01*
X121981443Y-77932038D01*
X122078205Y-77980419D01*
X122223348Y-77980419D01*
X121013824Y-77303085D02*
X121013824Y-77980419D01*
X121449253Y-77303085D02*
X121449253Y-77835276D01*
X121400872Y-77932038D01*
X121304110Y-77980419D01*
X121158967Y-77980419D01*
X121062205Y-77932038D01*
X121013824Y-77883657D01*
X120675158Y-77303085D02*
X120288110Y-77303085D01*
X120530015Y-76964419D02*
X120530015Y-77835276D01*
X120481634Y-77932038D01*
X120384872Y-77980419D01*
X120288110Y-77980419D01*
X118836681Y-77448228D02*
X118691539Y-77496609D01*
X118643158Y-77544990D01*
X118594777Y-77641752D01*
X118594777Y-77786895D01*
X118643158Y-77883657D01*
X118691539Y-77932038D01*
X118788300Y-77980419D01*
X119175348Y-77980419D01*
X119175348Y-76964419D01*
X118836681Y-76964419D01*
X118739920Y-77012800D01*
X118691539Y-77061180D01*
X118643158Y-77157942D01*
X118643158Y-77254704D01*
X118691539Y-77351466D01*
X118739920Y-77399847D01*
X118836681Y-77448228D01*
X119175348Y-77448228D01*
X118014205Y-77980419D02*
X118110967Y-77932038D01*
X118159348Y-77883657D01*
X118207729Y-77786895D01*
X118207729Y-77496609D01*
X118159348Y-77399847D01*
X118110967Y-77351466D01*
X118014205Y-77303085D01*
X117869062Y-77303085D01*
X117772300Y-77351466D01*
X117723920Y-77399847D01*
X117675539Y-77496609D01*
X117675539Y-77786895D01*
X117723920Y-77883657D01*
X117772300Y-77932038D01*
X117869062Y-77980419D01*
X118014205Y-77980419D01*
X116804681Y-77980419D02*
X116804681Y-77448228D01*
X116853062Y-77351466D01*
X116949824Y-77303085D01*
X117143348Y-77303085D01*
X117240110Y-77351466D01*
X116804681Y-77932038D02*
X116901443Y-77980419D01*
X117143348Y-77980419D01*
X117240110Y-77932038D01*
X117288491Y-77835276D01*
X117288491Y-77738514D01*
X117240110Y-77641752D01*
X117143348Y-77593371D01*
X116901443Y-77593371D01*
X116804681Y-77544990D01*
X116320872Y-77980419D02*
X116320872Y-77303085D01*
X116320872Y-77496609D02*
X116272491Y-77399847D01*
X116224110Y-77351466D01*
X116127348Y-77303085D01*
X116030586Y-77303085D01*
X115256491Y-77980419D02*
X115256491Y-76964419D01*
X115256491Y-77932038D02*
X115353253Y-77980419D01*
X115546777Y-77980419D01*
X115643539Y-77932038D01*
X115691920Y-77883657D01*
X115740300Y-77786895D01*
X115740300Y-77496609D01*
X115691920Y-77399847D01*
X115643539Y-77351466D01*
X115546777Y-77303085D01*
X115353253Y-77303085D01*
X115256491Y-77351466D01*
X126045443Y-79707619D02*
X126384110Y-79223809D01*
X126626015Y-79707619D02*
X126626015Y-78691619D01*
X126238967Y-78691619D01*
X126142205Y-78740000D01*
X126093824Y-78788380D01*
X126045443Y-78885142D01*
X126045443Y-79030285D01*
X126093824Y-79127047D01*
X126142205Y-79175428D01*
X126238967Y-79223809D01*
X126626015Y-79223809D01*
X125222967Y-79659238D02*
X125319729Y-79707619D01*
X125513253Y-79707619D01*
X125610015Y-79659238D01*
X125658396Y-79562476D01*
X125658396Y-79175428D01*
X125610015Y-79078666D01*
X125513253Y-79030285D01*
X125319729Y-79030285D01*
X125222967Y-79078666D01*
X125174586Y-79175428D01*
X125174586Y-79272190D01*
X125658396Y-79368952D01*
X124835920Y-79030285D02*
X124594015Y-79707619D01*
X124352110Y-79030285D01*
X122755539Y-79030285D02*
X122755539Y-79707619D01*
X122997443Y-78643238D02*
X123239348Y-79368952D01*
X122610396Y-79368952D01*
X126045443Y-81434819D02*
X126384110Y-80951009D01*
X126626015Y-81434819D02*
X126626015Y-80418819D01*
X126238967Y-80418819D01*
X126142205Y-80467200D01*
X126093824Y-80515580D01*
X126045443Y-80612342D01*
X126045443Y-80757485D01*
X126093824Y-80854247D01*
X126142205Y-80902628D01*
X126238967Y-80951009D01*
X126626015Y-80951009D01*
X125222967Y-81386438D02*
X125319729Y-81434819D01*
X125513253Y-81434819D01*
X125610015Y-81386438D01*
X125658396Y-81289676D01*
X125658396Y-80902628D01*
X125610015Y-80805866D01*
X125513253Y-80757485D01*
X125319729Y-80757485D01*
X125222967Y-80805866D01*
X125174586Y-80902628D01*
X125174586Y-80999390D01*
X125658396Y-81096152D01*
X124303729Y-81386438D02*
X124400491Y-81434819D01*
X124594015Y-81434819D01*
X124690777Y-81386438D01*
X124739158Y-81338057D01*
X124787539Y-81241295D01*
X124787539Y-80951009D01*
X124739158Y-80854247D01*
X124690777Y-80805866D01*
X124594015Y-80757485D01*
X124400491Y-80757485D01*
X124303729Y-80805866D01*
X123723158Y-81434819D02*
X123819920Y-81386438D01*
X123868300Y-81289676D01*
X123868300Y-80418819D01*
X122900681Y-81434819D02*
X122900681Y-80902628D01*
X122949062Y-80805866D01*
X123045824Y-80757485D01*
X123239348Y-80757485D01*
X123336110Y-80805866D01*
X122900681Y-81386438D02*
X122997443Y-81434819D01*
X123239348Y-81434819D01*
X123336110Y-81386438D01*
X123384491Y-81289676D01*
X123384491Y-81192914D01*
X123336110Y-81096152D01*
X123239348Y-81047771D01*
X122997443Y-81047771D01*
X122900681Y-80999390D01*
X122416872Y-81434819D02*
X122416872Y-80757485D01*
X122416872Y-80418819D02*
X122465253Y-80467200D01*
X122416872Y-80515580D01*
X122368491Y-80467200D01*
X122416872Y-80418819D01*
X122416872Y-80515580D01*
X121933062Y-81434819D02*
X121933062Y-80757485D01*
X121933062Y-80854247D02*
X121884681Y-80805866D01*
X121787920Y-80757485D01*
X121642777Y-80757485D01*
X121546015Y-80805866D01*
X121497634Y-80902628D01*
X121497634Y-81434819D01*
X121497634Y-80902628D02*
X121449253Y-80805866D01*
X121352491Y-80757485D01*
X121207348Y-80757485D01*
X121110586Y-80805866D01*
X121062205Y-80902628D01*
X121062205Y-81434819D01*
X120191348Y-81386438D02*
X120288110Y-81434819D01*
X120481634Y-81434819D01*
X120578396Y-81386438D01*
X120626777Y-81289676D01*
X120626777Y-80902628D01*
X120578396Y-80805866D01*
X120481634Y-80757485D01*
X120288110Y-80757485D01*
X120191348Y-80805866D01*
X120142967Y-80902628D01*
X120142967Y-80999390D01*
X120626777Y-81096152D01*
X119707539Y-81434819D02*
X119707539Y-80757485D01*
X119707539Y-80951009D02*
X119659158Y-80854247D01*
X119610777Y-80805866D01*
X119514015Y-80757485D01*
X119417253Y-80757485D01*
X118594777Y-81434819D02*
X119078586Y-81434819D01*
X119078586Y-80418819D01*
X117820681Y-81434819D02*
X117820681Y-80902628D01*
X117869062Y-80805866D01*
X117965824Y-80757485D01*
X118159348Y-80757485D01*
X118256110Y-80805866D01*
X117820681Y-81386438D02*
X117917443Y-81434819D01*
X118159348Y-81434819D01*
X118256110Y-81386438D01*
X118304491Y-81289676D01*
X118304491Y-81192914D01*
X118256110Y-81096152D01*
X118159348Y-81047771D01*
X117917443Y-81047771D01*
X117820681Y-80999390D01*
X117336872Y-81434819D02*
X117336872Y-80418819D01*
X117336872Y-80805866D02*
X117240110Y-80757485D01*
X117046586Y-80757485D01*
X116949824Y-80805866D01*
X116901443Y-80854247D01*
X116853062Y-80951009D01*
X116853062Y-81241295D01*
X116901443Y-81338057D01*
X116949824Y-81386438D01*
X117046586Y-81434819D01*
X117240110Y-81434819D01*
X117336872Y-81386438D01*
X116466015Y-81386438D02*
X116369253Y-81434819D01*
X116175729Y-81434819D01*
X116078967Y-81386438D01*
X116030586Y-81289676D01*
X116030586Y-81241295D01*
X116078967Y-81144533D01*
X116175729Y-81096152D01*
X116320872Y-81096152D01*
X116417634Y-81047771D01*
X116466015Y-80951009D01*
X116466015Y-80902628D01*
X116417634Y-80805866D01*
X116320872Y-80757485D01*
X116175729Y-80757485D01*
X116078967Y-80805866D01*
X115595158Y-81338057D02*
X115546777Y-81386438D01*
X115595158Y-81434819D01*
X115643539Y-81386438D01*
X115595158Y-81338057D01*
X115595158Y-81434819D01*
X114675920Y-81386438D02*
X114772681Y-81434819D01*
X114966205Y-81434819D01*
X115062967Y-81386438D01*
X115111348Y-81338057D01*
X115159729Y-81241295D01*
X115159729Y-80951009D01*
X115111348Y-80854247D01*
X115062967Y-80805866D01*
X114966205Y-80757485D01*
X114772681Y-80757485D01*
X114675920Y-80805866D01*
X114095348Y-81434819D02*
X114192110Y-81386438D01*
X114240491Y-81338057D01*
X114288872Y-81241295D01*
X114288872Y-80951009D01*
X114240491Y-80854247D01*
X114192110Y-80805866D01*
X114095348Y-80757485D01*
X113950205Y-80757485D01*
X113853443Y-80805866D01*
X113805062Y-80854247D01*
X113756681Y-80951009D01*
X113756681Y-81241295D01*
X113805062Y-81338057D01*
X113853443Y-81386438D01*
X113950205Y-81434819D01*
X114095348Y-81434819D01*
X113321253Y-81434819D02*
X113321253Y-80757485D01*
X113321253Y-80854247D02*
X113272872Y-80805866D01*
X113176110Y-80757485D01*
X113030967Y-80757485D01*
X112934205Y-80805866D01*
X112885824Y-80902628D01*
X112885824Y-81434819D01*
X112885824Y-80902628D02*
X112837443Y-80805866D01*
X112740681Y-80757485D01*
X112595539Y-80757485D01*
X112498777Y-80805866D01*
X112450396Y-80902628D01*
X112450396Y-81434819D01*
X126674396Y-83113638D02*
X126529253Y-83162019D01*
X126287348Y-83162019D01*
X126190586Y-83113638D01*
X126142205Y-83065257D01*
X126093824Y-82968495D01*
X126093824Y-82871733D01*
X126142205Y-82774971D01*
X126190586Y-82726590D01*
X126287348Y-82678209D01*
X126480872Y-82629828D01*
X126577634Y-82581447D01*
X126626015Y-82533066D01*
X126674396Y-82436304D01*
X126674396Y-82339542D01*
X126626015Y-82242780D01*
X126577634Y-82194400D01*
X126480872Y-82146019D01*
X126238967Y-82146019D01*
X126093824Y-82194400D01*
X125319729Y-82629828D02*
X125174586Y-82678209D01*
X125126205Y-82726590D01*
X125077824Y-82823352D01*
X125077824Y-82968495D01*
X125126205Y-83065257D01*
X125174586Y-83113638D01*
X125271348Y-83162019D01*
X125658396Y-83162019D01*
X125658396Y-82146019D01*
X125319729Y-82146019D01*
X125222967Y-82194400D01*
X125174586Y-82242780D01*
X125126205Y-82339542D01*
X125126205Y-82436304D01*
X125174586Y-82533066D01*
X125222967Y-82581447D01*
X125319729Y-82629828D01*
X125658396Y-82629828D01*
X124642396Y-82146019D02*
X124642396Y-82968495D01*
X124594015Y-83065257D01*
X124545634Y-83113638D01*
X124448872Y-83162019D01*
X124255348Y-83162019D01*
X124158586Y-83113638D01*
X124110205Y-83065257D01*
X124061824Y-82968495D01*
X124061824Y-82146019D01*
X122949062Y-82146019D02*
X122610396Y-83162019D01*
X122271729Y-82146019D01*
X121497634Y-83162019D02*
X121497634Y-82629828D01*
X121546015Y-82533066D01*
X121642777Y-82484685D01*
X121836300Y-82484685D01*
X121933062Y-82533066D01*
X121497634Y-83113638D02*
X121594396Y-83162019D01*
X121836300Y-83162019D01*
X121933062Y-83113638D01*
X121981443Y-83016876D01*
X121981443Y-82920114D01*
X121933062Y-82823352D01*
X121836300Y-82774971D01*
X121594396Y-82774971D01*
X121497634Y-82726590D01*
X121013824Y-83162019D02*
X121013824Y-82484685D01*
X121013824Y-82678209D02*
X120965443Y-82581447D01*
X120917062Y-82533066D01*
X120820300Y-82484685D01*
X120723539Y-82484685D01*
X120384872Y-83162019D02*
X120384872Y-82484685D01*
X120384872Y-82146019D02*
X120433253Y-82194400D01*
X120384872Y-82242780D01*
X120336491Y-82194400D01*
X120384872Y-82146019D01*
X120384872Y-82242780D01*
X119465634Y-83162019D02*
X119465634Y-82629828D01*
X119514015Y-82533066D01*
X119610777Y-82484685D01*
X119804300Y-82484685D01*
X119901062Y-82533066D01*
X119465634Y-83113638D02*
X119562396Y-83162019D01*
X119804300Y-83162019D01*
X119901062Y-83113638D01*
X119949443Y-83016876D01*
X119949443Y-82920114D01*
X119901062Y-82823352D01*
X119804300Y-82774971D01*
X119562396Y-82774971D01*
X119465634Y-82726590D01*
X118981824Y-82484685D02*
X118981824Y-83162019D01*
X118981824Y-82581447D02*
X118933443Y-82533066D01*
X118836681Y-82484685D01*
X118691539Y-82484685D01*
X118594777Y-82533066D01*
X118546396Y-82629828D01*
X118546396Y-83162019D01*
X118207729Y-82484685D02*
X117820681Y-82484685D01*
X118062586Y-82146019D02*
X118062586Y-83016876D01*
X118014205Y-83113638D01*
X117917443Y-83162019D01*
X117820681Y-83162019D01*
%LPC*%
D12*
X103370000Y-91920000D03*
X103370000Y-83280000D03*
D13*
X108730000Y-91920000D03*
X108730000Y-83280000D03*
G36*
G01*
X111966400Y-96668600D02*
X111966400Y-94941400D01*
G75*
G02*
X112166400Y-94741400I200000J0D01*
G01*
X113893600Y-94741400D01*
G75*
G02*
X114093600Y-94941400I0J-200000D01*
G01*
X114093600Y-96668600D01*
G75*
G02*
X113893600Y-96868600I-200000J0D01*
G01*
X112166400Y-96868600D01*
G75*
G02*
X111966400Y-96668600I0J200000D01*
G01*
G37*
D14*
X113030000Y-98345000D03*
X115570000Y-95805000D03*
X115570000Y-98345000D03*
X118110000Y-95805000D03*
X118110000Y-98345000D03*
D15*
X105600000Y-97710000D03*
D16*
X108225000Y-97710000D03*
X107456155Y-99566155D03*
X105600000Y-100335000D03*
X103743845Y-99566155D03*
X102975000Y-97710000D03*
X103743845Y-95853845D03*
X105600000Y-95085000D03*
X107456155Y-95853845D03*
D15*
X105600000Y-77600000D03*
D16*
X108225000Y-77600000D03*
X107456155Y-79456155D03*
X105600000Y-80225000D03*
X103743845Y-79456155D03*
X102975000Y-77600000D03*
X103743845Y-75743845D03*
X105600000Y-74975000D03*
X107456155Y-75743845D03*
D17*
X134620000Y-96440000D03*
X134620000Y-93900000D03*
X134620000Y-91360000D03*
X134620000Y-88820000D03*
X134620000Y-86280000D03*
X134620000Y-83740000D03*
X134620000Y-81200000D03*
G36*
G01*
X133570000Y-79510000D02*
X133570000Y-77810000D01*
G75*
G02*
X133770000Y-77610000I200000J0D01*
G01*
X135470000Y-77610000D01*
G75*
G02*
X135670000Y-77810000I0J-200000D01*
G01*
X135670000Y-79510000D01*
G75*
G02*
X135470000Y-79710000I-200000J0D01*
G01*
X133770000Y-79710000D01*
G75*
G02*
X133570000Y-79510000I0J200000D01*
G01*
G37*
D18*
X129159000Y-75501500D03*
X131699000Y-75501500D03*
X134239000Y-75501500D03*
M02*
