G04 #@! TF.GenerationSoftware,KiCad,Pcbnew,5.1.10*
G04 #@! TF.CreationDate,2021-05-27T14:54:43+02:00*
G04 #@! TF.ProjectId,USB-PD-Breakout,5553422d-5044-42d4-9272-65616b6f7574,rev?*
G04 #@! TF.SameCoordinates,Original*
G04 #@! TF.FileFunction,Soldermask,Top*
G04 #@! TF.FilePolarity,Negative*
%FSLAX46Y46*%
G04 Gerber Fmt 4.6, Leading zero omitted, Abs format (unit mm)*
G04 Created by KiCad (PCBNEW 5.1.10) date 2021-05-27 14:54:43*
%MOMM*%
%LPD*%
G01*
G04 APERTURE LIST*
%ADD10O,3.000000X1.500000*%
%ADD11O,2.500000X1.500000*%
%ADD12O,1.300000X2.000000*%
%ADD13O,2.127200X2.127200*%
%ADD14C,7.400000*%
%ADD15C,1.000000*%
%ADD16O,2.100000X2.100000*%
%ADD17C,1.670000*%
%ADD18C,2.500000*%
G04 APERTURE END LIST*
D10*
X103370000Y-91920000D03*
X103370000Y-83280000D03*
D11*
X108730000Y-91920000D03*
X108730000Y-83280000D03*
G36*
G01*
X107490000Y-83800000D02*
X108190000Y-83800000D01*
G75*
G02*
X108390000Y-84000000I0J-200000D01*
G01*
X108390000Y-85000000D01*
G75*
G02*
X108190000Y-85200000I-200000J0D01*
G01*
X107490000Y-85200000D01*
G75*
G02*
X107290000Y-85000000I0J200000D01*
G01*
X107290000Y-84000000D01*
G75*
G02*
X107490000Y-83800000I200000J0D01*
G01*
G37*
G36*
G01*
X107490000Y-85000000D02*
X108190000Y-85000000D01*
G75*
G02*
X108390000Y-85200000I0J-200000D01*
G01*
X108390000Y-85500000D01*
G75*
G02*
X108190000Y-85700000I-200000J0D01*
G01*
X107490000Y-85700000D01*
G75*
G02*
X107290000Y-85500000I0J200000D01*
G01*
X107290000Y-85200000D01*
G75*
G02*
X107490000Y-85000000I200000J0D01*
G01*
G37*
G36*
G01*
X107490000Y-85500000D02*
X108190000Y-85500000D01*
G75*
G02*
X108390000Y-85700000I0J-200000D01*
G01*
X108390000Y-86000000D01*
G75*
G02*
X108190000Y-86200000I-200000J0D01*
G01*
X107490000Y-86200000D01*
G75*
G02*
X107290000Y-86000000I0J200000D01*
G01*
X107290000Y-85700000D01*
G75*
G02*
X107490000Y-85500000I200000J0D01*
G01*
G37*
G36*
G01*
X107490000Y-86000000D02*
X108190000Y-86000000D01*
G75*
G02*
X108390000Y-86200000I0J-200000D01*
G01*
X108390000Y-86500000D01*
G75*
G02*
X108190000Y-86700000I-200000J0D01*
G01*
X107490000Y-86700000D01*
G75*
G02*
X107290000Y-86500000I0J200000D01*
G01*
X107290000Y-86200000D01*
G75*
G02*
X107490000Y-86000000I200000J0D01*
G01*
G37*
G36*
G01*
X107490000Y-86500000D02*
X108190000Y-86500000D01*
G75*
G02*
X108390000Y-86700000I0J-200000D01*
G01*
X108390000Y-87000000D01*
G75*
G02*
X108190000Y-87200000I-200000J0D01*
G01*
X107490000Y-87200000D01*
G75*
G02*
X107290000Y-87000000I0J200000D01*
G01*
X107290000Y-86700000D01*
G75*
G02*
X107490000Y-86500000I200000J0D01*
G01*
G37*
G36*
G01*
X107490000Y-87000000D02*
X108190000Y-87000000D01*
G75*
G02*
X108390000Y-87200000I0J-200000D01*
G01*
X108390000Y-87500000D01*
G75*
G02*
X108190000Y-87700000I-200000J0D01*
G01*
X107490000Y-87700000D01*
G75*
G02*
X107290000Y-87500000I0J200000D01*
G01*
X107290000Y-87200000D01*
G75*
G02*
X107490000Y-87000000I200000J0D01*
G01*
G37*
G36*
G01*
X107490000Y-87500000D02*
X108190000Y-87500000D01*
G75*
G02*
X108390000Y-87700000I0J-200000D01*
G01*
X108390000Y-88000000D01*
G75*
G02*
X108190000Y-88200000I-200000J0D01*
G01*
X107490000Y-88200000D01*
G75*
G02*
X107290000Y-88000000I0J200000D01*
G01*
X107290000Y-87700000D01*
G75*
G02*
X107490000Y-87500000I200000J0D01*
G01*
G37*
G36*
G01*
X107490000Y-88000000D02*
X108190000Y-88000000D01*
G75*
G02*
X108390000Y-88200000I0J-200000D01*
G01*
X108390000Y-88500000D01*
G75*
G02*
X108190000Y-88700000I-200000J0D01*
G01*
X107490000Y-88700000D01*
G75*
G02*
X107290000Y-88500000I0J200000D01*
G01*
X107290000Y-88200000D01*
G75*
G02*
X107490000Y-88000000I200000J0D01*
G01*
G37*
G36*
G01*
X107490000Y-88500000D02*
X108190000Y-88500000D01*
G75*
G02*
X108390000Y-88700000I0J-200000D01*
G01*
X108390000Y-89000000D01*
G75*
G02*
X108190000Y-89200000I-200000J0D01*
G01*
X107490000Y-89200000D01*
G75*
G02*
X107290000Y-89000000I0J200000D01*
G01*
X107290000Y-88700000D01*
G75*
G02*
X107490000Y-88500000I200000J0D01*
G01*
G37*
G36*
G01*
X107490000Y-89000000D02*
X108190000Y-89000000D01*
G75*
G02*
X108390000Y-89200000I0J-200000D01*
G01*
X108390000Y-89500000D01*
G75*
G02*
X108190000Y-89700000I-200000J0D01*
G01*
X107490000Y-89700000D01*
G75*
G02*
X107290000Y-89500000I0J200000D01*
G01*
X107290000Y-89200000D01*
G75*
G02*
X107490000Y-89000000I200000J0D01*
G01*
G37*
G36*
G01*
X107490000Y-89500000D02*
X108190000Y-89500000D01*
G75*
G02*
X108390000Y-89700000I0J-200000D01*
G01*
X108390000Y-90000000D01*
G75*
G02*
X108190000Y-90200000I-200000J0D01*
G01*
X107490000Y-90200000D01*
G75*
G02*
X107290000Y-90000000I0J200000D01*
G01*
X107290000Y-89700000D01*
G75*
G02*
X107490000Y-89500000I200000J0D01*
G01*
G37*
G36*
G01*
X107490000Y-90000000D02*
X108190000Y-90000000D01*
G75*
G02*
X108390000Y-90200000I0J-200000D01*
G01*
X108390000Y-91200000D01*
G75*
G02*
X108190000Y-91400000I-200000J0D01*
G01*
X107490000Y-91400000D01*
G75*
G02*
X107290000Y-91200000I0J200000D01*
G01*
X107290000Y-90200000D01*
G75*
G02*
X107490000Y-90000000I200000J0D01*
G01*
G37*
G36*
G01*
X108790000Y-90250000D02*
X109490000Y-90250000D01*
G75*
G02*
X109690000Y-90450000I0J-200000D01*
G01*
X109690000Y-90750000D01*
G75*
G02*
X109490000Y-90950000I-200000J0D01*
G01*
X108790000Y-90950000D01*
G75*
G02*
X108590000Y-90750000I0J200000D01*
G01*
X108590000Y-90450000D01*
G75*
G02*
X108790000Y-90250000I200000J0D01*
G01*
G37*
G36*
G01*
X108790000Y-89750000D02*
X109490000Y-89750000D01*
G75*
G02*
X109690000Y-89950000I0J-200000D01*
G01*
X109690000Y-90250000D01*
G75*
G02*
X109490000Y-90450000I-200000J0D01*
G01*
X108790000Y-90450000D01*
G75*
G02*
X108590000Y-90250000I0J200000D01*
G01*
X108590000Y-89950000D01*
G75*
G02*
X108790000Y-89750000I200000J0D01*
G01*
G37*
G36*
G01*
X108790000Y-89250000D02*
X109490000Y-89250000D01*
G75*
G02*
X109690000Y-89450000I0J-200000D01*
G01*
X109690000Y-89750000D01*
G75*
G02*
X109490000Y-89950000I-200000J0D01*
G01*
X108790000Y-89950000D01*
G75*
G02*
X108590000Y-89750000I0J200000D01*
G01*
X108590000Y-89450000D01*
G75*
G02*
X108790000Y-89250000I200000J0D01*
G01*
G37*
G36*
G01*
X108790000Y-88750000D02*
X109490000Y-88750000D01*
G75*
G02*
X109690000Y-88950000I0J-200000D01*
G01*
X109690000Y-89250000D01*
G75*
G02*
X109490000Y-89450000I-200000J0D01*
G01*
X108790000Y-89450000D01*
G75*
G02*
X108590000Y-89250000I0J200000D01*
G01*
X108590000Y-88950000D01*
G75*
G02*
X108790000Y-88750000I200000J0D01*
G01*
G37*
G36*
G01*
X108790000Y-88250000D02*
X109490000Y-88250000D01*
G75*
G02*
X109690000Y-88450000I0J-200000D01*
G01*
X109690000Y-88750000D01*
G75*
G02*
X109490000Y-88950000I-200000J0D01*
G01*
X108790000Y-88950000D01*
G75*
G02*
X108590000Y-88750000I0J200000D01*
G01*
X108590000Y-88450000D01*
G75*
G02*
X108790000Y-88250000I200000J0D01*
G01*
G37*
G36*
G01*
X108790000Y-87750000D02*
X109490000Y-87750000D01*
G75*
G02*
X109690000Y-87950000I0J-200000D01*
G01*
X109690000Y-88250000D01*
G75*
G02*
X109490000Y-88450000I-200000J0D01*
G01*
X108790000Y-88450000D01*
G75*
G02*
X108590000Y-88250000I0J200000D01*
G01*
X108590000Y-87950000D01*
G75*
G02*
X108790000Y-87750000I200000J0D01*
G01*
G37*
G36*
G01*
X108790000Y-86750000D02*
X109490000Y-86750000D01*
G75*
G02*
X109690000Y-86950000I0J-200000D01*
G01*
X109690000Y-87250000D01*
G75*
G02*
X109490000Y-87450000I-200000J0D01*
G01*
X108790000Y-87450000D01*
G75*
G02*
X108590000Y-87250000I0J200000D01*
G01*
X108590000Y-86950000D01*
G75*
G02*
X108790000Y-86750000I200000J0D01*
G01*
G37*
G36*
G01*
X108790000Y-86250000D02*
X109490000Y-86250000D01*
G75*
G02*
X109690000Y-86450000I0J-200000D01*
G01*
X109690000Y-86750000D01*
G75*
G02*
X109490000Y-86950000I-200000J0D01*
G01*
X108790000Y-86950000D01*
G75*
G02*
X108590000Y-86750000I0J200000D01*
G01*
X108590000Y-86450000D01*
G75*
G02*
X108790000Y-86250000I200000J0D01*
G01*
G37*
G36*
G01*
X108790000Y-85750000D02*
X109490000Y-85750000D01*
G75*
G02*
X109690000Y-85950000I0J-200000D01*
G01*
X109690000Y-86250000D01*
G75*
G02*
X109490000Y-86450000I-200000J0D01*
G01*
X108790000Y-86450000D01*
G75*
G02*
X108590000Y-86250000I0J200000D01*
G01*
X108590000Y-85950000D01*
G75*
G02*
X108790000Y-85750000I200000J0D01*
G01*
G37*
G36*
G01*
X108790000Y-85250000D02*
X109490000Y-85250000D01*
G75*
G02*
X109690000Y-85450000I0J-200000D01*
G01*
X109690000Y-85750000D01*
G75*
G02*
X109490000Y-85950000I-200000J0D01*
G01*
X108790000Y-85950000D01*
G75*
G02*
X108590000Y-85750000I0J200000D01*
G01*
X108590000Y-85450000D01*
G75*
G02*
X108790000Y-85250000I200000J0D01*
G01*
G37*
G36*
G01*
X108790000Y-84750000D02*
X109490000Y-84750000D01*
G75*
G02*
X109690000Y-84950000I0J-200000D01*
G01*
X109690000Y-85250000D01*
G75*
G02*
X109490000Y-85450000I-200000J0D01*
G01*
X108790000Y-85450000D01*
G75*
G02*
X108590000Y-85250000I0J200000D01*
G01*
X108590000Y-84950000D01*
G75*
G02*
X108790000Y-84750000I200000J0D01*
G01*
G37*
G36*
G01*
X108790000Y-84250000D02*
X109490000Y-84250000D01*
G75*
G02*
X109690000Y-84450000I0J-200000D01*
G01*
X109690000Y-84750000D01*
G75*
G02*
X109490000Y-84950000I-200000J0D01*
G01*
X108790000Y-84950000D01*
G75*
G02*
X108590000Y-84750000I0J200000D01*
G01*
X108590000Y-84450000D01*
G75*
G02*
X108790000Y-84250000I200000J0D01*
G01*
G37*
D12*
X112270000Y-75050000D03*
X118870000Y-75050000D03*
G36*
G01*
X111670000Y-76500000D02*
X113070000Y-76500000D01*
G75*
G02*
X113270000Y-76700000I0J-200000D01*
G01*
X113270000Y-78300000D01*
G75*
G02*
X113070000Y-78500000I-200000J0D01*
G01*
X111670000Y-78500000D01*
G75*
G02*
X111470000Y-78300000I0J200000D01*
G01*
X111470000Y-76700000D01*
G75*
G02*
X111670000Y-76500000I200000J0D01*
G01*
G37*
G36*
G01*
X118070000Y-76500000D02*
X119470000Y-76500000D01*
G75*
G02*
X119670000Y-76700000I0J-200000D01*
G01*
X119670000Y-78300000D01*
G75*
G02*
X119470000Y-78500000I-200000J0D01*
G01*
X118070000Y-78500000D01*
G75*
G02*
X117870000Y-78300000I0J200000D01*
G01*
X117870000Y-76700000D01*
G75*
G02*
X118070000Y-76500000I200000J0D01*
G01*
G37*
G36*
G01*
X113420000Y-73900000D02*
X115320000Y-73900000D01*
G75*
G02*
X115520000Y-74100000I0J-200000D01*
G01*
X115520000Y-76000000D01*
G75*
G02*
X115320000Y-76200000I-200000J0D01*
G01*
X113420000Y-76200000D01*
G75*
G02*
X113220000Y-76000000I0J200000D01*
G01*
X113220000Y-74100000D01*
G75*
G02*
X113420000Y-73900000I200000J0D01*
G01*
G37*
G36*
G01*
X115820000Y-73900000D02*
X117720000Y-73900000D01*
G75*
G02*
X117920000Y-74100000I0J-200000D01*
G01*
X117920000Y-76000000D01*
G75*
G02*
X117720000Y-76200000I-200000J0D01*
G01*
X115820000Y-76200000D01*
G75*
G02*
X115620000Y-76000000I0J200000D01*
G01*
X115620000Y-74100000D01*
G75*
G02*
X115820000Y-73900000I200000J0D01*
G01*
G37*
G36*
G01*
X114070000Y-76850000D02*
X114470000Y-76850000D01*
G75*
G02*
X114670000Y-77050000I0J-200000D01*
G01*
X114670000Y-78400000D01*
G75*
G02*
X114470000Y-78600000I-200000J0D01*
G01*
X114070000Y-78600000D01*
G75*
G02*
X113870000Y-78400000I0J200000D01*
G01*
X113870000Y-77050000D01*
G75*
G02*
X114070000Y-76850000I200000J0D01*
G01*
G37*
G36*
G01*
X114720000Y-76850000D02*
X115120000Y-76850000D01*
G75*
G02*
X115320000Y-77050000I0J-200000D01*
G01*
X115320000Y-78400000D01*
G75*
G02*
X115120000Y-78600000I-200000J0D01*
G01*
X114720000Y-78600000D01*
G75*
G02*
X114520000Y-78400000I0J200000D01*
G01*
X114520000Y-77050000D01*
G75*
G02*
X114720000Y-76850000I200000J0D01*
G01*
G37*
G36*
G01*
X115370000Y-76850000D02*
X115770000Y-76850000D01*
G75*
G02*
X115970000Y-77050000I0J-200000D01*
G01*
X115970000Y-78400000D01*
G75*
G02*
X115770000Y-78600000I-200000J0D01*
G01*
X115370000Y-78600000D01*
G75*
G02*
X115170000Y-78400000I0J200000D01*
G01*
X115170000Y-77050000D01*
G75*
G02*
X115370000Y-76850000I200000J0D01*
G01*
G37*
G36*
G01*
X116020000Y-76850000D02*
X116420000Y-76850000D01*
G75*
G02*
X116620000Y-77050000I0J-200000D01*
G01*
X116620000Y-78400000D01*
G75*
G02*
X116420000Y-78600000I-200000J0D01*
G01*
X116020000Y-78600000D01*
G75*
G02*
X115820000Y-78400000I0J200000D01*
G01*
X115820000Y-77050000D01*
G75*
G02*
X116020000Y-76850000I200000J0D01*
G01*
G37*
G36*
G01*
X116670000Y-76850000D02*
X117070000Y-76850000D01*
G75*
G02*
X117270000Y-77050000I0J-200000D01*
G01*
X117270000Y-78400000D01*
G75*
G02*
X117070000Y-78600000I-200000J0D01*
G01*
X116670000Y-78600000D01*
G75*
G02*
X116470000Y-78400000I0J200000D01*
G01*
X116470000Y-77050000D01*
G75*
G02*
X116670000Y-76850000I200000J0D01*
G01*
G37*
G36*
G01*
X111966400Y-96668600D02*
X111966400Y-94941400D01*
G75*
G02*
X112166400Y-94741400I200000J0D01*
G01*
X113893600Y-94741400D01*
G75*
G02*
X114093600Y-94941400I0J-200000D01*
G01*
X114093600Y-96668600D01*
G75*
G02*
X113893600Y-96868600I-200000J0D01*
G01*
X112166400Y-96868600D01*
G75*
G02*
X111966400Y-96668600I0J200000D01*
G01*
G37*
D13*
X113030000Y-98345000D03*
X115570000Y-95805000D03*
X115570000Y-98345000D03*
X118110000Y-95805000D03*
X118110000Y-98345000D03*
G36*
G01*
X124546000Y-99272000D02*
X124546000Y-97672000D01*
G75*
G02*
X124746000Y-97472000I200000J0D01*
G01*
X125746000Y-97472000D01*
G75*
G02*
X125946000Y-97672000I0J-200000D01*
G01*
X125946000Y-99272000D01*
G75*
G02*
X125746000Y-99472000I-200000J0D01*
G01*
X124746000Y-99472000D01*
G75*
G02*
X124546000Y-99272000I0J200000D01*
G01*
G37*
G36*
G01*
X127546000Y-99272000D02*
X127546000Y-97672000D01*
G75*
G02*
X127746000Y-97472000I200000J0D01*
G01*
X128746000Y-97472000D01*
G75*
G02*
X128946000Y-97672000I0J-200000D01*
G01*
X128946000Y-99272000D01*
G75*
G02*
X128746000Y-99472000I-200000J0D01*
G01*
X127746000Y-99472000D01*
G75*
G02*
X127546000Y-99272000I0J200000D01*
G01*
G37*
G36*
G01*
X124761000Y-96307000D02*
X124761000Y-95557000D01*
G75*
G02*
X124961000Y-95357000I200000J0D01*
G01*
X125761000Y-95357000D01*
G75*
G02*
X125961000Y-95557000I0J-200000D01*
G01*
X125961000Y-96307000D01*
G75*
G02*
X125761000Y-96507000I-200000J0D01*
G01*
X124961000Y-96507000D01*
G75*
G02*
X124761000Y-96307000I0J200000D01*
G01*
G37*
G36*
G01*
X126261000Y-96307000D02*
X126261000Y-95557000D01*
G75*
G02*
X126461000Y-95357000I200000J0D01*
G01*
X127261000Y-95357000D01*
G75*
G02*
X127461000Y-95557000I0J-200000D01*
G01*
X127461000Y-96307000D01*
G75*
G02*
X127261000Y-96507000I-200000J0D01*
G01*
X126461000Y-96507000D01*
G75*
G02*
X126261000Y-96307000I0J200000D01*
G01*
G37*
G36*
G01*
X126863000Y-86028000D02*
X125613000Y-86028000D01*
G75*
G02*
X125413000Y-85828000I0J200000D01*
G01*
X125413000Y-84828000D01*
G75*
G02*
X125613000Y-84628000I200000J0D01*
G01*
X126863000Y-84628000D01*
G75*
G02*
X127063000Y-84828000I0J-200000D01*
G01*
X127063000Y-85828000D01*
G75*
G02*
X126863000Y-86028000I-200000J0D01*
G01*
G37*
G36*
G01*
X126863000Y-84028000D02*
X125613000Y-84028000D01*
G75*
G02*
X125413000Y-83828000I0J200000D01*
G01*
X125413000Y-82828000D01*
G75*
G02*
X125613000Y-82628000I200000J0D01*
G01*
X126863000Y-82628000D01*
G75*
G02*
X127063000Y-82828000I0J-200000D01*
G01*
X127063000Y-83828000D01*
G75*
G02*
X126863000Y-84028000I-200000J0D01*
G01*
G37*
G36*
G01*
X124581000Y-85852000D02*
X123831000Y-85852000D01*
G75*
G02*
X123631000Y-85652000I0J200000D01*
G01*
X123631000Y-84852000D01*
G75*
G02*
X123831000Y-84652000I200000J0D01*
G01*
X124581000Y-84652000D01*
G75*
G02*
X124781000Y-84852000I0J-200000D01*
G01*
X124781000Y-85652000D01*
G75*
G02*
X124581000Y-85852000I-200000J0D01*
G01*
G37*
G36*
G01*
X124581000Y-84352000D02*
X123831000Y-84352000D01*
G75*
G02*
X123631000Y-84152000I0J200000D01*
G01*
X123631000Y-83352000D01*
G75*
G02*
X123831000Y-83152000I200000J0D01*
G01*
X124581000Y-83152000D01*
G75*
G02*
X124781000Y-83352000I0J-200000D01*
G01*
X124781000Y-84152000D01*
G75*
G02*
X124581000Y-84352000I-200000J0D01*
G01*
G37*
G36*
G01*
X124761000Y-93767000D02*
X124761000Y-93017000D01*
G75*
G02*
X124961000Y-92817000I200000J0D01*
G01*
X125761000Y-92817000D01*
G75*
G02*
X125961000Y-93017000I0J-200000D01*
G01*
X125961000Y-93767000D01*
G75*
G02*
X125761000Y-93967000I-200000J0D01*
G01*
X124961000Y-93967000D01*
G75*
G02*
X124761000Y-93767000I0J200000D01*
G01*
G37*
G36*
G01*
X126261000Y-93767000D02*
X126261000Y-93017000D01*
G75*
G02*
X126461000Y-92817000I200000J0D01*
G01*
X127261000Y-92817000D01*
G75*
G02*
X127461000Y-93017000I0J-200000D01*
G01*
X127461000Y-93767000D01*
G75*
G02*
X127261000Y-93967000I-200000J0D01*
G01*
X126461000Y-93967000D01*
G75*
G02*
X126261000Y-93767000I0J200000D01*
G01*
G37*
G36*
G01*
X123651000Y-93017000D02*
X123651000Y-93767000D01*
G75*
G02*
X123451000Y-93967000I-200000J0D01*
G01*
X122651000Y-93967000D01*
G75*
G02*
X122451000Y-93767000I0J200000D01*
G01*
X122451000Y-93017000D01*
G75*
G02*
X122651000Y-92817000I200000J0D01*
G01*
X123451000Y-92817000D01*
G75*
G02*
X123651000Y-93017000I0J-200000D01*
G01*
G37*
G36*
G01*
X122151000Y-93017000D02*
X122151000Y-93767000D01*
G75*
G02*
X121951000Y-93967000I-200000J0D01*
G01*
X121151000Y-93967000D01*
G75*
G02*
X120951000Y-93767000I0J200000D01*
G01*
X120951000Y-93017000D01*
G75*
G02*
X121151000Y-92817000I200000J0D01*
G01*
X121951000Y-92817000D01*
G75*
G02*
X122151000Y-93017000I0J-200000D01*
G01*
G37*
G36*
G01*
X125810000Y-75110000D02*
X125810000Y-75860000D01*
G75*
G02*
X125610000Y-76060000I-200000J0D01*
G01*
X124810000Y-76060000D01*
G75*
G02*
X124610000Y-75860000I0J200000D01*
G01*
X124610000Y-75110000D01*
G75*
G02*
X124810000Y-74910000I200000J0D01*
G01*
X125610000Y-74910000D01*
G75*
G02*
X125810000Y-75110000I0J-200000D01*
G01*
G37*
G36*
G01*
X124310000Y-75110000D02*
X124310000Y-75860000D01*
G75*
G02*
X124110000Y-76060000I-200000J0D01*
G01*
X123310000Y-76060000D01*
G75*
G02*
X123110000Y-75860000I0J200000D01*
G01*
X123110000Y-75110000D01*
G75*
G02*
X123310000Y-74910000I200000J0D01*
G01*
X124110000Y-74910000D01*
G75*
G02*
X124310000Y-75110000I0J-200000D01*
G01*
G37*
G36*
G01*
X125810000Y-77015000D02*
X125810000Y-77765000D01*
G75*
G02*
X125610000Y-77965000I-200000J0D01*
G01*
X124810000Y-77965000D01*
G75*
G02*
X124610000Y-77765000I0J200000D01*
G01*
X124610000Y-77015000D01*
G75*
G02*
X124810000Y-76815000I200000J0D01*
G01*
X125610000Y-76815000D01*
G75*
G02*
X125810000Y-77015000I0J-200000D01*
G01*
G37*
G36*
G01*
X124310000Y-77015000D02*
X124310000Y-77765000D01*
G75*
G02*
X124110000Y-77965000I-200000J0D01*
G01*
X123310000Y-77965000D01*
G75*
G02*
X123110000Y-77765000I0J200000D01*
G01*
X123110000Y-77015000D01*
G75*
G02*
X123310000Y-76815000I200000J0D01*
G01*
X124110000Y-76815000D01*
G75*
G02*
X124310000Y-77015000I0J-200000D01*
G01*
G37*
G36*
G01*
X125810000Y-78920000D02*
X125810000Y-79670000D01*
G75*
G02*
X125610000Y-79870000I-200000J0D01*
G01*
X124810000Y-79870000D01*
G75*
G02*
X124610000Y-79670000I0J200000D01*
G01*
X124610000Y-78920000D01*
G75*
G02*
X124810000Y-78720000I200000J0D01*
G01*
X125610000Y-78720000D01*
G75*
G02*
X125810000Y-78920000I0J-200000D01*
G01*
G37*
G36*
G01*
X124310000Y-78920000D02*
X124310000Y-79670000D01*
G75*
G02*
X124110000Y-79870000I-200000J0D01*
G01*
X123310000Y-79870000D01*
G75*
G02*
X123110000Y-79670000I0J200000D01*
G01*
X123110000Y-78920000D01*
G75*
G02*
X123310000Y-78720000I200000J0D01*
G01*
X124110000Y-78720000D01*
G75*
G02*
X124310000Y-78920000I0J-200000D01*
G01*
G37*
G36*
G01*
X125131000Y-89732000D02*
X125711000Y-89732000D01*
G75*
G02*
X125911000Y-89932000I0J-200000D01*
G01*
X125911000Y-90232000D01*
G75*
G02*
X125711000Y-90432000I-200000J0D01*
G01*
X125131000Y-90432000D01*
G75*
G02*
X124931000Y-90232000I0J200000D01*
G01*
X124931000Y-89932000D01*
G75*
G02*
X125131000Y-89732000I200000J0D01*
G01*
G37*
G36*
G01*
X125131000Y-89232000D02*
X125711000Y-89232000D01*
G75*
G02*
X125911000Y-89432000I0J-200000D01*
G01*
X125911000Y-89732000D01*
G75*
G02*
X125711000Y-89932000I-200000J0D01*
G01*
X125131000Y-89932000D01*
G75*
G02*
X124931000Y-89732000I0J200000D01*
G01*
X124931000Y-89432000D01*
G75*
G02*
X125131000Y-89232000I200000J0D01*
G01*
G37*
G36*
G01*
X125131000Y-88732000D02*
X125711000Y-88732000D01*
G75*
G02*
X125911000Y-88932000I0J-200000D01*
G01*
X125911000Y-89232000D01*
G75*
G02*
X125711000Y-89432000I-200000J0D01*
G01*
X125131000Y-89432000D01*
G75*
G02*
X124931000Y-89232000I0J200000D01*
G01*
X124931000Y-88932000D01*
G75*
G02*
X125131000Y-88732000I200000J0D01*
G01*
G37*
G36*
G01*
X124806000Y-88077000D02*
X124806000Y-88657000D01*
G75*
G02*
X124606000Y-88857000I-200000J0D01*
G01*
X124306000Y-88857000D01*
G75*
G02*
X124106000Y-88657000I0J200000D01*
G01*
X124106000Y-88077000D01*
G75*
G02*
X124306000Y-87877000I200000J0D01*
G01*
X124606000Y-87877000D01*
G75*
G02*
X124806000Y-88077000I0J-200000D01*
G01*
G37*
G36*
G01*
X124306000Y-88077000D02*
X124306000Y-88657000D01*
G75*
G02*
X124106000Y-88857000I-200000J0D01*
G01*
X123806000Y-88857000D01*
G75*
G02*
X123606000Y-88657000I0J200000D01*
G01*
X123606000Y-88077000D01*
G75*
G02*
X123806000Y-87877000I200000J0D01*
G01*
X124106000Y-87877000D01*
G75*
G02*
X124306000Y-88077000I0J-200000D01*
G01*
G37*
G36*
G01*
X123806000Y-88077000D02*
X123806000Y-88657000D01*
G75*
G02*
X123606000Y-88857000I-200000J0D01*
G01*
X123306000Y-88857000D01*
G75*
G02*
X123106000Y-88657000I0J200000D01*
G01*
X123106000Y-88077000D01*
G75*
G02*
X123306000Y-87877000I200000J0D01*
G01*
X123606000Y-87877000D01*
G75*
G02*
X123806000Y-88077000I0J-200000D01*
G01*
G37*
G36*
G01*
X122701000Y-88732000D02*
X123281000Y-88732000D01*
G75*
G02*
X123481000Y-88932000I0J-200000D01*
G01*
X123481000Y-89232000D01*
G75*
G02*
X123281000Y-89432000I-200000J0D01*
G01*
X122701000Y-89432000D01*
G75*
G02*
X122501000Y-89232000I0J200000D01*
G01*
X122501000Y-88932000D01*
G75*
G02*
X122701000Y-88732000I200000J0D01*
G01*
G37*
G36*
G01*
X122701000Y-89232000D02*
X123281000Y-89232000D01*
G75*
G02*
X123481000Y-89432000I0J-200000D01*
G01*
X123481000Y-89732000D01*
G75*
G02*
X123281000Y-89932000I-200000J0D01*
G01*
X122701000Y-89932000D01*
G75*
G02*
X122501000Y-89732000I0J200000D01*
G01*
X122501000Y-89432000D01*
G75*
G02*
X122701000Y-89232000I200000J0D01*
G01*
G37*
G36*
G01*
X122701000Y-89732000D02*
X123281000Y-89732000D01*
G75*
G02*
X123481000Y-89932000I0J-200000D01*
G01*
X123481000Y-90232000D01*
G75*
G02*
X123281000Y-90432000I-200000J0D01*
G01*
X122701000Y-90432000D01*
G75*
G02*
X122501000Y-90232000I0J200000D01*
G01*
X122501000Y-89932000D01*
G75*
G02*
X122701000Y-89732000I200000J0D01*
G01*
G37*
G36*
G01*
X123806000Y-90507000D02*
X123806000Y-91087000D01*
G75*
G02*
X123606000Y-91287000I-200000J0D01*
G01*
X123306000Y-91287000D01*
G75*
G02*
X123106000Y-91087000I0J200000D01*
G01*
X123106000Y-90507000D01*
G75*
G02*
X123306000Y-90307000I200000J0D01*
G01*
X123606000Y-90307000D01*
G75*
G02*
X123806000Y-90507000I0J-200000D01*
G01*
G37*
G36*
G01*
X124806000Y-90507000D02*
X124806000Y-91087000D01*
G75*
G02*
X124606000Y-91287000I-200000J0D01*
G01*
X124306000Y-91287000D01*
G75*
G02*
X124106000Y-91087000I0J200000D01*
G01*
X124106000Y-90507000D01*
G75*
G02*
X124306000Y-90307000I200000J0D01*
G01*
X124606000Y-90307000D01*
G75*
G02*
X124806000Y-90507000I0J-200000D01*
G01*
G37*
G36*
G01*
X125306000Y-90507000D02*
X125306000Y-91087000D01*
G75*
G02*
X125106000Y-91287000I-200000J0D01*
G01*
X124806000Y-91287000D01*
G75*
G02*
X124606000Y-91087000I0J200000D01*
G01*
X124606000Y-90507000D01*
G75*
G02*
X124806000Y-90307000I200000J0D01*
G01*
X125106000Y-90307000D01*
G75*
G02*
X125306000Y-90507000I0J-200000D01*
G01*
G37*
G36*
G01*
X124306000Y-90507000D02*
X124306000Y-91087000D01*
G75*
G02*
X124106000Y-91287000I-200000J0D01*
G01*
X123806000Y-91287000D01*
G75*
G02*
X123606000Y-91087000I0J200000D01*
G01*
X123606000Y-90507000D01*
G75*
G02*
X123806000Y-90307000I200000J0D01*
G01*
X124106000Y-90307000D01*
G75*
G02*
X124306000Y-90507000I0J-200000D01*
G01*
G37*
G36*
G01*
X125306000Y-88077000D02*
X125306000Y-88657000D01*
G75*
G02*
X125106000Y-88857000I-200000J0D01*
G01*
X124806000Y-88857000D01*
G75*
G02*
X124606000Y-88657000I0J200000D01*
G01*
X124606000Y-88077000D01*
G75*
G02*
X124806000Y-87877000I200000J0D01*
G01*
X125106000Y-87877000D01*
G75*
G02*
X125306000Y-88077000I0J-200000D01*
G01*
G37*
G36*
G01*
X123481000Y-88657000D02*
X124931000Y-88657000D01*
G75*
G02*
X125131000Y-88857000I0J-200000D01*
G01*
X125131000Y-90307000D01*
G75*
G02*
X124931000Y-90507000I-200000J0D01*
G01*
X123481000Y-90507000D01*
G75*
G02*
X123281000Y-90307000I0J200000D01*
G01*
X123281000Y-88857000D01*
G75*
G02*
X123481000Y-88657000I200000J0D01*
G01*
G37*
D14*
X105600000Y-97710000D03*
D15*
X108225000Y-97710000D03*
X107456155Y-99566155D03*
X105600000Y-100335000D03*
X103743845Y-99566155D03*
X102975000Y-97710000D03*
X103743845Y-95853845D03*
X105600000Y-95085000D03*
X107456155Y-95853845D03*
D14*
X105600000Y-77600000D03*
D15*
X108225000Y-77600000D03*
X107456155Y-79456155D03*
X105600000Y-80225000D03*
X103743845Y-79456155D03*
X102975000Y-77600000D03*
X103743845Y-75743845D03*
X105600000Y-74975000D03*
X107456155Y-75743845D03*
D16*
X134620000Y-96440000D03*
X134620000Y-93900000D03*
X134620000Y-91360000D03*
X134620000Y-88820000D03*
X134620000Y-86280000D03*
X134620000Y-83740000D03*
X134620000Y-81200000D03*
G36*
G01*
X133570000Y-79510000D02*
X133570000Y-77810000D01*
G75*
G02*
X133770000Y-77610000I200000J0D01*
G01*
X135470000Y-77610000D01*
G75*
G02*
X135670000Y-77810000I0J-200000D01*
G01*
X135670000Y-79510000D01*
G75*
G02*
X135470000Y-79710000I-200000J0D01*
G01*
X133770000Y-79710000D01*
G75*
G02*
X133570000Y-79510000I0J200000D01*
G01*
G37*
D17*
X128905000Y-83820000D03*
X127063500Y-79057500D03*
X117602000Y-80899000D03*
X130937000Y-99695000D03*
X123571000Y-96266000D03*
X123444000Y-81788000D03*
X120777000Y-83185000D03*
X119761000Y-86487000D03*
X119761000Y-91567000D03*
D18*
X129159000Y-75501500D03*
X131699000Y-75501500D03*
X134239000Y-75501500D03*
M02*
