%FSLAX45Y45*%
G04 Gerber Fmt 4.5, Leading zero omitted, Abs format (unit mm)*
G04 Created by KiCad (PCBNEW 5.1.10) date 2021-05-27 14:18:21*
%MOMM*%
%LPD*%
G01*
G04 APERTURE LIST*
%TA.AperFunction,Profile*%
%ADD10C,0.254000*%
%TD*%
%ADD11C,0.200000*%
%ADD12C,0.300000*%
G04 APERTURE END LIST*
D10*
X13610000Y-10160000D02*
X10160000Y-10160000D01*
X13610000Y-7360000D02*
X13610000Y-10160000D01*
X10160000Y-7360000D02*
X13610000Y-7360000D01*
X10160000Y-10160000D02*
X10160000Y-7360000D01*
D11*
X10521950Y-8858250D02*
X10560050Y-8896350D01*
X10560050Y-8858250D02*
X10521950Y-8896350D01*
X10572750Y-8774050D02*
X10610850Y-8812150D01*
X10610850Y-8774050D02*
X10572750Y-8812150D01*
X10574550Y-8665950D02*
X10612650Y-8704050D01*
X10612650Y-8665950D02*
X10574550Y-8704050D01*
X10661650Y-8393050D02*
X10699750Y-8431150D01*
X10699750Y-8393050D02*
X10661650Y-8431150D01*
X10661650Y-8469250D02*
X10699750Y-8507350D01*
X10699750Y-8469250D02*
X10661650Y-8507350D01*
X10661650Y-8774050D02*
X10699750Y-8812150D01*
X10699750Y-8774050D02*
X10661650Y-8812150D01*
X10661650Y-9028050D02*
X10699750Y-9066150D01*
X10699750Y-9028050D02*
X10661650Y-9066150D01*
X10661650Y-9104250D02*
X10699750Y-9142350D01*
X10699750Y-9104250D02*
X10661650Y-9142350D01*
X10991850Y-8393050D02*
X11029950Y-8431150D01*
X11029950Y-8393050D02*
X10991850Y-8431150D01*
X11004391Y-8685468D02*
X11042491Y-8723568D01*
X11042491Y-8685468D02*
X11004391Y-8723568D01*
X11004550Y-9040750D02*
X11042650Y-9078850D01*
X11042650Y-9040750D02*
X11004550Y-9078850D01*
X11004551Y-8774369D02*
X11042651Y-8812469D01*
X11042651Y-8774369D02*
X11004551Y-8812469D01*
X11042650Y-8266050D02*
X11080750Y-8304150D01*
X11080750Y-8266050D02*
X11042650Y-8304150D01*
X11042650Y-8342250D02*
X11080750Y-8380350D01*
X11080750Y-8342250D02*
X11042650Y-8380350D01*
X11080750Y-8604250D02*
X11118850Y-8642350D01*
X11118850Y-8604250D02*
X11080750Y-8642350D01*
X11080750Y-9040750D02*
X11118850Y-9078850D01*
X11118850Y-9040750D02*
X11080750Y-9078850D01*
X11080750Y-9116950D02*
X11118850Y-9155050D01*
X11118850Y-9116950D02*
X11080750Y-9155050D01*
X11118850Y-8266050D02*
X11156950Y-8304150D01*
X11156950Y-8266050D02*
X11118850Y-8304150D01*
X11118850Y-8342250D02*
X11156950Y-8380350D01*
X11156950Y-8342250D02*
X11118850Y-8380350D01*
X11156950Y-9040750D02*
X11195050Y-9078850D01*
X11195050Y-9040750D02*
X11156950Y-9078850D01*
X11156950Y-9116950D02*
X11195050Y-9155050D01*
X11195050Y-9116950D02*
X11156950Y-9155050D01*
X11182350Y-8769350D02*
X11220450Y-8807450D01*
X11220450Y-8769350D02*
X11182350Y-8807450D01*
X11188700Y-8909050D02*
X11226800Y-8947150D01*
X11226800Y-8909050D02*
X11188700Y-8947150D01*
X11233150Y-7897750D02*
X11271250Y-7935850D01*
X11271250Y-7897750D02*
X11233150Y-7935850D01*
X11233150Y-7986650D02*
X11271250Y-8024750D01*
X11271250Y-7986650D02*
X11233150Y-8024750D01*
X11245850Y-8705850D02*
X11283950Y-8743950D01*
X11283950Y-8705850D02*
X11245850Y-8743950D01*
X11322050Y-7897750D02*
X11360150Y-7935850D01*
X11360150Y-7897750D02*
X11322050Y-7935850D01*
X11322050Y-7986650D02*
X11360150Y-8024750D01*
X11360150Y-7986650D02*
X11322050Y-8024750D01*
X11410950Y-7897750D02*
X11449050Y-7935850D01*
X11449050Y-7897750D02*
X11410950Y-7935850D01*
X11410950Y-7986650D02*
X11449050Y-8024750D01*
X11449050Y-7986650D02*
X11410950Y-8024750D01*
X12007850Y-9315450D02*
X12045950Y-9353550D01*
X12045950Y-9315450D02*
X12007850Y-9353550D01*
X12172950Y-8896350D02*
X12211050Y-8934450D01*
X12211050Y-8896350D02*
X12172950Y-8934450D01*
X12185650Y-8756650D02*
X12223750Y-8794750D01*
X12223750Y-8756650D02*
X12185650Y-8794750D01*
X12249150Y-8680450D02*
X12287250Y-8718550D01*
X12287250Y-8680450D02*
X12249150Y-8718550D01*
X12274550Y-8350250D02*
X12312650Y-8388350D01*
X12312650Y-8350250D02*
X12274550Y-8388350D01*
X12338050Y-8642350D02*
X12376150Y-8680450D01*
X12376150Y-8642350D02*
X12338050Y-8680450D01*
X12668250Y-9188450D02*
X12706350Y-9226550D01*
X12706350Y-9188450D02*
X12668250Y-9226550D01*
X12668250Y-9442450D02*
X12706350Y-9480550D01*
X12706350Y-9442450D02*
X12668250Y-9480550D01*
X12693650Y-8756650D02*
X12731750Y-8794750D01*
X12731750Y-8756650D02*
X12693650Y-8794750D01*
X12731750Y-8197850D02*
X12769850Y-8235950D01*
X12769850Y-8197850D02*
X12731750Y-8235950D01*
X12769850Y-8693150D02*
X12807950Y-8731250D01*
X12807950Y-8693150D02*
X12769850Y-8731250D01*
X12807950Y-9988550D02*
X12846050Y-10026650D01*
X12846050Y-9988550D02*
X12807950Y-10026650D01*
X12846050Y-8629650D02*
X12884150Y-8667750D01*
X12884150Y-8629650D02*
X12846050Y-8667750D01*
X10322500Y-7760000D02*
G75*
G03*
X10322500Y-7760000I-25000J0D01*
G01*
X10322500Y-9771000D02*
G75*
G03*
X10322500Y-9771000I-25000J0D01*
G01*
X10399385Y-7574384D02*
G75*
G03*
X10399385Y-7574384I-25000J0D01*
G01*
X10399385Y-7945615D02*
G75*
G03*
X10399385Y-7945615I-25000J0D01*
G01*
X10399385Y-9585385D02*
G75*
G03*
X10399385Y-9585385I-25000J0D01*
G01*
X10399385Y-9956616D02*
G75*
G03*
X10399385Y-9956616I-25000J0D01*
G01*
X10585000Y-7497500D02*
G75*
G03*
X10585000Y-7497500I-25000J0D01*
G01*
X10585000Y-8022500D02*
G75*
G03*
X10585000Y-8022500I-25000J0D01*
G01*
X10585000Y-9508500D02*
G75*
G03*
X10585000Y-9508500I-25000J0D01*
G01*
X10585000Y-10033500D02*
G75*
G03*
X10585000Y-10033500I-25000J0D01*
G01*
X10770616Y-7574384D02*
G75*
G03*
X10770616Y-7574384I-25000J0D01*
G01*
X10770616Y-7945615D02*
G75*
G03*
X10770616Y-7945615I-25000J0D01*
G01*
X10770616Y-9585385D02*
G75*
G03*
X10770616Y-9585385I-25000J0D01*
G01*
X10770616Y-9956616D02*
G75*
G03*
X10770616Y-9956616I-25000J0D01*
G01*
X10847500Y-7760000D02*
G75*
G03*
X10847500Y-7760000I-25000J0D01*
G01*
X10847500Y-9771000D02*
G75*
G03*
X10847500Y-9771000I-25000J0D01*
G01*
X13462000Y-7816000D02*
X13462000Y-7916000D01*
X13412000Y-7866000D02*
X13512000Y-7866000D01*
X13462000Y-8070000D02*
X13462000Y-8170000D01*
X13412000Y-8120000D02*
X13512000Y-8120000D01*
X13462000Y-8324000D02*
X13462000Y-8424000D01*
X13412000Y-8374000D02*
X13512000Y-8374000D01*
X13462000Y-8578000D02*
X13462000Y-8678000D01*
X13412000Y-8628000D02*
X13512000Y-8628000D01*
X13462000Y-8832000D02*
X13462000Y-8932000D01*
X13412000Y-8882000D02*
X13512000Y-8882000D01*
X13462000Y-9086000D02*
X13462000Y-9186000D01*
X13412000Y-9136000D02*
X13512000Y-9136000D01*
X13462000Y-9340000D02*
X13462000Y-9440000D01*
X13412000Y-9390000D02*
X13512000Y-9390000D01*
X13462000Y-9594000D02*
X13462000Y-9694000D01*
X13412000Y-9644000D02*
X13512000Y-9644000D01*
X11338921Y-9616421D02*
X11338921Y-9544579D01*
X11267079Y-9544579D01*
X11267079Y-9616421D01*
X11338921Y-9616421D01*
X11338921Y-9870421D02*
X11338921Y-9798579D01*
X11267079Y-9798579D01*
X11267079Y-9870421D01*
X11338921Y-9870421D01*
X11592921Y-9616421D02*
X11592921Y-9544579D01*
X11521079Y-9544579D01*
X11521079Y-9616421D01*
X11592921Y-9616421D01*
X11592921Y-9870421D02*
X11592921Y-9798579D01*
X11521079Y-9798579D01*
X11521079Y-9870421D01*
X11592921Y-9870421D01*
X11846921Y-9616421D02*
X11846921Y-9544579D01*
X11775079Y-9544579D01*
X11775079Y-9616421D01*
X11846921Y-9616421D01*
X11846921Y-9870421D02*
X11846921Y-9798579D01*
X11775079Y-9798579D01*
X11775079Y-9870421D01*
X11846921Y-9870421D01*
X12915900Y-7605150D02*
X12970900Y-7550150D01*
X12915900Y-7495150D01*
X12860900Y-7550150D01*
X12915900Y-7605150D01*
X13169900Y-7605150D02*
X13224900Y-7550150D01*
X13169900Y-7495150D01*
X13114900Y-7550150D01*
X13169900Y-7605150D01*
X13423900Y-7605150D02*
X13478900Y-7550150D01*
X13423900Y-7495150D01*
X13368900Y-7550150D01*
X13423900Y-7605150D01*
X10385000Y-7585000D02*
X10735000Y-7935000D01*
X10735000Y-7585000D02*
X10385000Y-7935000D01*
X10735000Y-7760000D02*
G75*
G03*
X10735000Y-7760000I-175000J0D01*
G01*
X10385000Y-9596000D02*
X10735000Y-9946000D01*
X10735000Y-9596000D02*
X10385000Y-9946000D01*
X10735000Y-9771000D02*
G75*
G03*
X10735000Y-9771000I-175000J0D01*
G01*
D12*
X10433728Y-10638414D02*
X10433728Y-10338414D01*
X10505157Y-10338414D01*
X10548014Y-10352700D01*
X10576586Y-10381272D01*
X10590871Y-10409843D01*
X10605157Y-10466986D01*
X10605157Y-10509843D01*
X10590871Y-10566986D01*
X10576586Y-10595557D01*
X10548014Y-10624129D01*
X10505157Y-10638414D01*
X10433728Y-10638414D01*
X10733728Y-10638414D02*
X10733728Y-10438414D01*
X10733728Y-10495557D02*
X10748014Y-10466986D01*
X10762300Y-10452700D01*
X10790871Y-10438414D01*
X10819443Y-10438414D01*
X10919443Y-10638414D02*
X10919443Y-10438414D01*
X10919443Y-10338414D02*
X10905157Y-10352700D01*
X10919443Y-10366986D01*
X10933728Y-10352700D01*
X10919443Y-10338414D01*
X10919443Y-10366986D01*
X11105157Y-10638414D02*
X11076586Y-10624129D01*
X11062300Y-10595557D01*
X11062300Y-10338414D01*
X11262300Y-10638414D02*
X11233728Y-10624129D01*
X11219443Y-10595557D01*
X11219443Y-10338414D01*
X11605157Y-10638414D02*
X11605157Y-10338414D01*
X11705157Y-10552700D01*
X11805157Y-10338414D01*
X11805157Y-10638414D01*
X12076586Y-10638414D02*
X12076586Y-10481272D01*
X12062300Y-10452700D01*
X12033728Y-10438414D01*
X11976586Y-10438414D01*
X11948014Y-10452700D01*
X12076586Y-10624129D02*
X12048014Y-10638414D01*
X11976586Y-10638414D01*
X11948014Y-10624129D01*
X11933728Y-10595557D01*
X11933728Y-10566986D01*
X11948014Y-10538414D01*
X11976586Y-10524129D01*
X12048014Y-10524129D01*
X12076586Y-10509843D01*
X12219443Y-10438414D02*
X12219443Y-10738414D01*
X12219443Y-10452700D02*
X12248014Y-10438414D01*
X12305157Y-10438414D01*
X12333728Y-10452700D01*
X12348014Y-10466986D01*
X12362300Y-10495557D01*
X12362300Y-10581272D01*
X12348014Y-10609843D01*
X12333728Y-10624129D01*
X12305157Y-10638414D01*
X12248014Y-10638414D01*
X12219443Y-10624129D01*
X12490871Y-10609843D02*
X12505157Y-10624129D01*
X12490871Y-10638414D01*
X12476586Y-10624129D01*
X12490871Y-10609843D01*
X12490871Y-10638414D01*
X12490871Y-10452700D02*
X12505157Y-10466986D01*
X12490871Y-10481272D01*
X12476586Y-10466986D01*
X12490871Y-10452700D01*
X12490871Y-10481272D01*
X10109200Y-11113650D02*
X10147300Y-11151750D01*
X10147300Y-11113650D02*
X10109200Y-11151750D01*
X10490871Y-10968414D02*
X10519443Y-10968414D01*
X10548014Y-10982700D01*
X10562300Y-10996986D01*
X10576586Y-11025557D01*
X10590871Y-11082700D01*
X10590871Y-11154129D01*
X10576586Y-11211271D01*
X10562300Y-11239843D01*
X10548014Y-11254129D01*
X10519443Y-11268414D01*
X10490871Y-11268414D01*
X10462300Y-11254129D01*
X10448014Y-11239843D01*
X10433728Y-11211271D01*
X10419443Y-11154129D01*
X10419443Y-11082700D01*
X10433728Y-11025557D01*
X10448014Y-10996986D01*
X10462300Y-10982700D01*
X10490871Y-10968414D01*
X10719443Y-11239843D02*
X10733728Y-11254129D01*
X10719443Y-11268414D01*
X10705157Y-11254129D01*
X10719443Y-11239843D01*
X10719443Y-11268414D01*
X10833728Y-10968414D02*
X11019443Y-10968414D01*
X10919443Y-11082700D01*
X10962300Y-11082700D01*
X10990871Y-11096986D01*
X11005157Y-11111272D01*
X11019443Y-11139843D01*
X11019443Y-11211271D01*
X11005157Y-11239843D01*
X10990871Y-11254129D01*
X10962300Y-11268414D01*
X10876586Y-11268414D01*
X10848014Y-11254129D01*
X10833728Y-11239843D01*
X11190871Y-11096986D02*
X11162300Y-11082700D01*
X11148014Y-11068414D01*
X11133728Y-11039843D01*
X11133728Y-11025557D01*
X11148014Y-10996986D01*
X11162300Y-10982700D01*
X11190871Y-10968414D01*
X11248014Y-10968414D01*
X11276586Y-10982700D01*
X11290871Y-10996986D01*
X11305157Y-11025557D01*
X11305157Y-11039843D01*
X11290871Y-11068414D01*
X11276586Y-11082700D01*
X11248014Y-11096986D01*
X11190871Y-11096986D01*
X11162300Y-11111272D01*
X11148014Y-11125557D01*
X11133728Y-11154129D01*
X11133728Y-11211271D01*
X11148014Y-11239843D01*
X11162300Y-11254129D01*
X11190871Y-11268414D01*
X11248014Y-11268414D01*
X11276586Y-11254129D01*
X11290871Y-11239843D01*
X11305157Y-11211271D01*
X11305157Y-11154129D01*
X11290871Y-11125557D01*
X11276586Y-11111272D01*
X11248014Y-11096986D01*
X11590871Y-11268414D02*
X11419443Y-11268414D01*
X11505157Y-11268414D02*
X11505157Y-10968414D01*
X11476586Y-11011272D01*
X11448014Y-11039843D01*
X11419443Y-11054129D01*
X11719443Y-11268414D02*
X11719443Y-11068414D01*
X11719443Y-11096986D02*
X11733728Y-11082700D01*
X11762300Y-11068414D01*
X11805157Y-11068414D01*
X11833728Y-11082700D01*
X11848014Y-11111272D01*
X11848014Y-11268414D01*
X11848014Y-11111272D02*
X11862300Y-11082700D01*
X11890871Y-11068414D01*
X11933728Y-11068414D01*
X11962300Y-11082700D01*
X11976586Y-11111272D01*
X11976586Y-11268414D01*
X12119443Y-11268414D02*
X12119443Y-11068414D01*
X12119443Y-11096986D02*
X12133728Y-11082700D01*
X12162300Y-11068414D01*
X12205157Y-11068414D01*
X12233728Y-11082700D01*
X12248014Y-11111272D01*
X12248014Y-11268414D01*
X12248014Y-11111272D02*
X12262300Y-11082700D01*
X12290871Y-11068414D01*
X12333728Y-11068414D01*
X12362300Y-11082700D01*
X12376586Y-11111272D01*
X12376586Y-11268414D01*
X12962300Y-10954129D02*
X12705157Y-11339843D01*
X13348014Y-10968414D02*
X13376586Y-10968414D01*
X13405157Y-10982700D01*
X13419443Y-10996986D01*
X13433728Y-11025557D01*
X13448014Y-11082700D01*
X13448014Y-11154129D01*
X13433728Y-11211271D01*
X13419443Y-11239843D01*
X13405157Y-11254129D01*
X13376586Y-11268414D01*
X13348014Y-11268414D01*
X13319443Y-11254129D01*
X13305157Y-11239843D01*
X13290871Y-11211271D01*
X13276586Y-11154129D01*
X13276586Y-11082700D01*
X13290871Y-11025557D01*
X13305157Y-10996986D01*
X13319443Y-10982700D01*
X13348014Y-10968414D01*
X13576586Y-11239843D02*
X13590871Y-11254129D01*
X13576586Y-11268414D01*
X13562300Y-11254129D01*
X13576586Y-11239843D01*
X13576586Y-11268414D01*
X13776586Y-10968414D02*
X13805157Y-10968414D01*
X13833728Y-10982700D01*
X13848014Y-10996986D01*
X13862300Y-11025557D01*
X13876586Y-11082700D01*
X13876586Y-11154129D01*
X13862300Y-11211271D01*
X13848014Y-11239843D01*
X13833728Y-11254129D01*
X13805157Y-11268414D01*
X13776586Y-11268414D01*
X13748014Y-11254129D01*
X13733728Y-11239843D01*
X13719443Y-11211271D01*
X13705157Y-11154129D01*
X13705157Y-11082700D01*
X13719443Y-11025557D01*
X13733728Y-10996986D01*
X13748014Y-10982700D01*
X13776586Y-10968414D01*
X14162300Y-11268414D02*
X13990871Y-11268414D01*
X14076586Y-11268414D02*
X14076586Y-10968414D01*
X14048014Y-11011272D01*
X14019443Y-11039843D01*
X13990871Y-11054129D01*
X14433728Y-10968414D02*
X14290871Y-10968414D01*
X14276586Y-11111272D01*
X14290871Y-11096986D01*
X14319443Y-11082700D01*
X14390871Y-11082700D01*
X14419443Y-11096986D01*
X14433728Y-11111272D01*
X14448014Y-11139843D01*
X14448014Y-11211271D01*
X14433728Y-11239843D01*
X14419443Y-11254129D01*
X14390871Y-11268414D01*
X14319443Y-11268414D01*
X14290871Y-11254129D01*
X14276586Y-11239843D01*
X14633728Y-10968414D02*
X14662300Y-10968414D01*
X14690871Y-10982700D01*
X14705157Y-10996986D01*
X14719443Y-11025557D01*
X14733728Y-11082700D01*
X14733728Y-11154129D01*
X14719443Y-11211271D01*
X14705157Y-11239843D01*
X14690871Y-11254129D01*
X14662300Y-11268414D01*
X14633728Y-11268414D01*
X14605157Y-11254129D01*
X14590871Y-11239843D01*
X14576586Y-11211271D01*
X14562300Y-11154129D01*
X14562300Y-11082700D01*
X14576586Y-11025557D01*
X14590871Y-10996986D01*
X14605157Y-10982700D01*
X14633728Y-10968414D01*
X14848014Y-10968414D02*
X14848014Y-11025557D01*
X14962300Y-10968414D02*
X14962300Y-11025557D01*
X15405157Y-11382700D02*
X15390871Y-11368414D01*
X15362300Y-11325557D01*
X15348014Y-11296986D01*
X15333728Y-11254129D01*
X15319443Y-11182700D01*
X15319443Y-11125557D01*
X15333728Y-11054129D01*
X15348014Y-11011272D01*
X15362300Y-10982700D01*
X15390871Y-10939843D01*
X15405157Y-10925557D01*
X15648014Y-11068414D02*
X15648014Y-11268414D01*
X15576586Y-10954129D02*
X15505157Y-11168414D01*
X15690871Y-11168414D01*
X15776586Y-10968414D02*
X15962300Y-10968414D01*
X15862300Y-11082700D01*
X15905157Y-11082700D01*
X15933728Y-11096986D01*
X15948014Y-11111272D01*
X15962300Y-11139843D01*
X15962300Y-11211271D01*
X15948014Y-11239843D01*
X15933728Y-11254129D01*
X15905157Y-11268414D01*
X15819443Y-11268414D01*
X15790871Y-11254129D01*
X15776586Y-11239843D01*
X16319443Y-11268414D02*
X16319443Y-10968414D01*
X16448014Y-11268414D02*
X16448014Y-11111272D01*
X16433728Y-11082700D01*
X16405157Y-11068414D01*
X16362300Y-11068414D01*
X16333728Y-11082700D01*
X16319443Y-11096986D01*
X16633728Y-11268414D02*
X16605157Y-11254129D01*
X16590871Y-11239843D01*
X16576586Y-11211271D01*
X16576586Y-11125557D01*
X16590871Y-11096986D01*
X16605157Y-11082700D01*
X16633728Y-11068414D01*
X16676586Y-11068414D01*
X16705157Y-11082700D01*
X16719443Y-11096986D01*
X16733728Y-11125557D01*
X16733728Y-11211271D01*
X16719443Y-11239843D01*
X16705157Y-11254129D01*
X16676586Y-11268414D01*
X16633728Y-11268414D01*
X16905157Y-11268414D02*
X16876586Y-11254129D01*
X16862300Y-11225557D01*
X16862300Y-10968414D01*
X17133728Y-11254129D02*
X17105157Y-11268414D01*
X17048014Y-11268414D01*
X17019443Y-11254129D01*
X17005157Y-11225557D01*
X17005157Y-11111272D01*
X17019443Y-11082700D01*
X17048014Y-11068414D01*
X17105157Y-11068414D01*
X17133728Y-11082700D01*
X17148014Y-11111272D01*
X17148014Y-11139843D01*
X17005157Y-11168414D01*
X17262300Y-11254129D02*
X17290871Y-11268414D01*
X17348014Y-11268414D01*
X17376586Y-11254129D01*
X17390871Y-11225557D01*
X17390871Y-11211271D01*
X17376586Y-11182700D01*
X17348014Y-11168414D01*
X17305157Y-11168414D01*
X17276586Y-11154129D01*
X17262300Y-11125557D01*
X17262300Y-11111272D01*
X17276586Y-11082700D01*
X17305157Y-11068414D01*
X17348014Y-11068414D01*
X17376586Y-11082700D01*
X17490871Y-11382700D02*
X17505157Y-11368414D01*
X17533728Y-11325557D01*
X17548014Y-11296986D01*
X17562300Y-11254129D01*
X17576586Y-11182700D01*
X17576586Y-11125557D01*
X17562300Y-11054129D01*
X17548014Y-11011272D01*
X17533728Y-10982700D01*
X17505157Y-10939843D01*
X17490871Y-10925557D01*
X10147300Y-11528700D02*
G75*
G03*
X10147300Y-11528700I-25000J0D01*
G01*
X10490871Y-11364414D02*
X10519443Y-11364414D01*
X10548014Y-11378700D01*
X10562300Y-11392986D01*
X10576586Y-11421557D01*
X10590871Y-11478700D01*
X10590871Y-11550129D01*
X10576586Y-11607271D01*
X10562300Y-11635843D01*
X10548014Y-11650129D01*
X10519443Y-11664414D01*
X10490871Y-11664414D01*
X10462300Y-11650129D01*
X10448014Y-11635843D01*
X10433728Y-11607271D01*
X10419443Y-11550129D01*
X10419443Y-11478700D01*
X10433728Y-11421557D01*
X10448014Y-11392986D01*
X10462300Y-11378700D01*
X10490871Y-11364414D01*
X10719443Y-11635843D02*
X10733728Y-11650129D01*
X10719443Y-11664414D01*
X10705157Y-11650129D01*
X10719443Y-11635843D01*
X10719443Y-11664414D01*
X11005157Y-11364414D02*
X10862300Y-11364414D01*
X10848014Y-11507271D01*
X10862300Y-11492986D01*
X10890871Y-11478700D01*
X10962300Y-11478700D01*
X10990871Y-11492986D01*
X11005157Y-11507271D01*
X11019443Y-11535843D01*
X11019443Y-11607271D01*
X11005157Y-11635843D01*
X10990871Y-11650129D01*
X10962300Y-11664414D01*
X10890871Y-11664414D01*
X10862300Y-11650129D01*
X10848014Y-11635843D01*
X11205157Y-11364414D02*
X11233728Y-11364414D01*
X11262300Y-11378700D01*
X11276586Y-11392986D01*
X11290871Y-11421557D01*
X11305157Y-11478700D01*
X11305157Y-11550129D01*
X11290871Y-11607271D01*
X11276586Y-11635843D01*
X11262300Y-11650129D01*
X11233728Y-11664414D01*
X11205157Y-11664414D01*
X11176586Y-11650129D01*
X11162300Y-11635843D01*
X11148014Y-11607271D01*
X11133728Y-11550129D01*
X11133728Y-11478700D01*
X11148014Y-11421557D01*
X11162300Y-11392986D01*
X11176586Y-11378700D01*
X11205157Y-11364414D01*
X11490871Y-11364414D02*
X11519443Y-11364414D01*
X11548014Y-11378700D01*
X11562300Y-11392986D01*
X11576586Y-11421557D01*
X11590871Y-11478700D01*
X11590871Y-11550129D01*
X11576586Y-11607271D01*
X11562300Y-11635843D01*
X11548014Y-11650129D01*
X11519443Y-11664414D01*
X11490871Y-11664414D01*
X11462300Y-11650129D01*
X11448014Y-11635843D01*
X11433728Y-11607271D01*
X11419443Y-11550129D01*
X11419443Y-11478700D01*
X11433728Y-11421557D01*
X11448014Y-11392986D01*
X11462300Y-11378700D01*
X11490871Y-11364414D01*
X11719443Y-11664414D02*
X11719443Y-11464414D01*
X11719443Y-11492986D02*
X11733728Y-11478700D01*
X11762300Y-11464414D01*
X11805157Y-11464414D01*
X11833728Y-11478700D01*
X11848014Y-11507271D01*
X11848014Y-11664414D01*
X11848014Y-11507271D02*
X11862300Y-11478700D01*
X11890871Y-11464414D01*
X11933728Y-11464414D01*
X11962300Y-11478700D01*
X11976586Y-11507271D01*
X11976586Y-11664414D01*
X12119443Y-11664414D02*
X12119443Y-11464414D01*
X12119443Y-11492986D02*
X12133728Y-11478700D01*
X12162300Y-11464414D01*
X12205157Y-11464414D01*
X12233728Y-11478700D01*
X12248014Y-11507271D01*
X12248014Y-11664414D01*
X12248014Y-11507271D02*
X12262300Y-11478700D01*
X12290871Y-11464414D01*
X12333728Y-11464414D01*
X12362300Y-11478700D01*
X12376586Y-11507271D01*
X12376586Y-11664414D01*
X12962300Y-11350129D02*
X12705157Y-11735843D01*
X13348014Y-11364414D02*
X13376586Y-11364414D01*
X13405157Y-11378700D01*
X13419443Y-11392986D01*
X13433728Y-11421557D01*
X13448014Y-11478700D01*
X13448014Y-11550129D01*
X13433728Y-11607271D01*
X13419443Y-11635843D01*
X13405157Y-11650129D01*
X13376586Y-11664414D01*
X13348014Y-11664414D01*
X13319443Y-11650129D01*
X13305157Y-11635843D01*
X13290871Y-11607271D01*
X13276586Y-11550129D01*
X13276586Y-11478700D01*
X13290871Y-11421557D01*
X13305157Y-11392986D01*
X13319443Y-11378700D01*
X13348014Y-11364414D01*
X13576586Y-11635843D02*
X13590871Y-11650129D01*
X13576586Y-11664414D01*
X13562300Y-11650129D01*
X13576586Y-11635843D01*
X13576586Y-11664414D01*
X13776586Y-11364414D02*
X13805157Y-11364414D01*
X13833728Y-11378700D01*
X13848014Y-11392986D01*
X13862300Y-11421557D01*
X13876586Y-11478700D01*
X13876586Y-11550129D01*
X13862300Y-11607271D01*
X13848014Y-11635843D01*
X13833728Y-11650129D01*
X13805157Y-11664414D01*
X13776586Y-11664414D01*
X13748014Y-11650129D01*
X13733728Y-11635843D01*
X13719443Y-11607271D01*
X13705157Y-11550129D01*
X13705157Y-11478700D01*
X13719443Y-11421557D01*
X13733728Y-11392986D01*
X13748014Y-11378700D01*
X13776586Y-11364414D01*
X14162300Y-11664414D02*
X13990871Y-11664414D01*
X14076586Y-11664414D02*
X14076586Y-11364414D01*
X14048014Y-11407271D01*
X14019443Y-11435843D01*
X13990871Y-11450129D01*
X14305157Y-11664414D02*
X14362300Y-11664414D01*
X14390871Y-11650129D01*
X14405157Y-11635843D01*
X14433728Y-11592986D01*
X14448014Y-11535843D01*
X14448014Y-11421557D01*
X14433728Y-11392986D01*
X14419443Y-11378700D01*
X14390871Y-11364414D01*
X14333728Y-11364414D01*
X14305157Y-11378700D01*
X14290871Y-11392986D01*
X14276586Y-11421557D01*
X14276586Y-11492986D01*
X14290871Y-11521557D01*
X14305157Y-11535843D01*
X14333728Y-11550129D01*
X14390871Y-11550129D01*
X14419443Y-11535843D01*
X14433728Y-11521557D01*
X14448014Y-11492986D01*
X14548014Y-11364414D02*
X14748014Y-11364414D01*
X14619443Y-11664414D01*
X14848014Y-11364414D02*
X14848014Y-11421557D01*
X14962300Y-11364414D02*
X14962300Y-11421557D01*
X15405157Y-11778700D02*
X15390871Y-11764414D01*
X15362300Y-11721557D01*
X15348014Y-11692986D01*
X15333728Y-11650129D01*
X15319443Y-11578700D01*
X15319443Y-11521557D01*
X15333728Y-11450129D01*
X15348014Y-11407271D01*
X15362300Y-11378700D01*
X15390871Y-11335843D01*
X15405157Y-11321557D01*
X15676586Y-11664414D02*
X15505157Y-11664414D01*
X15590871Y-11664414D02*
X15590871Y-11364414D01*
X15562300Y-11407271D01*
X15533728Y-11435843D01*
X15505157Y-11450129D01*
X15933728Y-11364414D02*
X15876586Y-11364414D01*
X15848014Y-11378700D01*
X15833728Y-11392986D01*
X15805157Y-11435843D01*
X15790871Y-11492986D01*
X15790871Y-11607271D01*
X15805157Y-11635843D01*
X15819443Y-11650129D01*
X15848014Y-11664414D01*
X15905157Y-11664414D01*
X15933728Y-11650129D01*
X15948014Y-11635843D01*
X15962300Y-11607271D01*
X15962300Y-11535843D01*
X15948014Y-11507271D01*
X15933728Y-11492986D01*
X15905157Y-11478700D01*
X15848014Y-11478700D01*
X15819443Y-11492986D01*
X15805157Y-11507271D01*
X15790871Y-11535843D01*
X16319443Y-11664414D02*
X16319443Y-11364414D01*
X16448014Y-11664414D02*
X16448014Y-11507271D01*
X16433728Y-11478700D01*
X16405157Y-11464414D01*
X16362300Y-11464414D01*
X16333728Y-11478700D01*
X16319443Y-11492986D01*
X16633728Y-11664414D02*
X16605157Y-11650129D01*
X16590871Y-11635843D01*
X16576586Y-11607271D01*
X16576586Y-11521557D01*
X16590871Y-11492986D01*
X16605157Y-11478700D01*
X16633728Y-11464414D01*
X16676586Y-11464414D01*
X16705157Y-11478700D01*
X16719443Y-11492986D01*
X16733728Y-11521557D01*
X16733728Y-11607271D01*
X16719443Y-11635843D01*
X16705157Y-11650129D01*
X16676586Y-11664414D01*
X16633728Y-11664414D01*
X16905157Y-11664414D02*
X16876586Y-11650129D01*
X16862300Y-11621557D01*
X16862300Y-11364414D01*
X17133728Y-11650129D02*
X17105157Y-11664414D01*
X17048014Y-11664414D01*
X17019443Y-11650129D01*
X17005157Y-11621557D01*
X17005157Y-11507271D01*
X17019443Y-11478700D01*
X17048014Y-11464414D01*
X17105157Y-11464414D01*
X17133728Y-11478700D01*
X17148014Y-11507271D01*
X17148014Y-11535843D01*
X17005157Y-11564414D01*
X17262300Y-11650129D02*
X17290871Y-11664414D01*
X17348014Y-11664414D01*
X17376586Y-11650129D01*
X17390871Y-11621557D01*
X17390871Y-11607271D01*
X17376586Y-11578700D01*
X17348014Y-11564414D01*
X17305157Y-11564414D01*
X17276586Y-11550129D01*
X17262300Y-11521557D01*
X17262300Y-11507271D01*
X17276586Y-11478700D01*
X17305157Y-11464414D01*
X17348014Y-11464414D01*
X17376586Y-11478700D01*
X17490871Y-11778700D02*
X17505157Y-11764414D01*
X17533728Y-11721557D01*
X17548014Y-11692986D01*
X17562300Y-11650129D01*
X17576586Y-11578700D01*
X17576586Y-11521557D01*
X17562300Y-11450129D01*
X17548014Y-11407271D01*
X17533728Y-11378700D01*
X17505157Y-11335843D01*
X17490871Y-11321557D01*
X10097300Y-11874700D02*
X10097300Y-11974700D01*
X10047300Y-11924700D02*
X10147300Y-11924700D01*
X10590871Y-12060414D02*
X10419443Y-12060414D01*
X10505157Y-12060414D02*
X10505157Y-11760414D01*
X10476586Y-11803271D01*
X10448014Y-11831843D01*
X10419443Y-11846129D01*
X10719443Y-12031843D02*
X10733728Y-12046129D01*
X10719443Y-12060414D01*
X10705157Y-12046129D01*
X10719443Y-12031843D01*
X10719443Y-12060414D01*
X10919443Y-11760414D02*
X10948014Y-11760414D01*
X10976586Y-11774700D01*
X10990871Y-11788986D01*
X11005157Y-11817557D01*
X11019443Y-11874700D01*
X11019443Y-11946129D01*
X11005157Y-12003271D01*
X10990871Y-12031843D01*
X10976586Y-12046129D01*
X10948014Y-12060414D01*
X10919443Y-12060414D01*
X10890871Y-12046129D01*
X10876586Y-12031843D01*
X10862300Y-12003271D01*
X10848014Y-11946129D01*
X10848014Y-11874700D01*
X10862300Y-11817557D01*
X10876586Y-11788986D01*
X10890871Y-11774700D01*
X10919443Y-11760414D01*
X11205157Y-11760414D02*
X11233728Y-11760414D01*
X11262300Y-11774700D01*
X11276586Y-11788986D01*
X11290871Y-11817557D01*
X11305157Y-11874700D01*
X11305157Y-11946129D01*
X11290871Y-12003271D01*
X11276586Y-12031843D01*
X11262300Y-12046129D01*
X11233728Y-12060414D01*
X11205157Y-12060414D01*
X11176586Y-12046129D01*
X11162300Y-12031843D01*
X11148014Y-12003271D01*
X11133728Y-11946129D01*
X11133728Y-11874700D01*
X11148014Y-11817557D01*
X11162300Y-11788986D01*
X11176586Y-11774700D01*
X11205157Y-11760414D01*
X11490871Y-11760414D02*
X11519443Y-11760414D01*
X11548014Y-11774700D01*
X11562300Y-11788986D01*
X11576586Y-11817557D01*
X11590871Y-11874700D01*
X11590871Y-11946129D01*
X11576586Y-12003271D01*
X11562300Y-12031843D01*
X11548014Y-12046129D01*
X11519443Y-12060414D01*
X11490871Y-12060414D01*
X11462300Y-12046129D01*
X11448014Y-12031843D01*
X11433728Y-12003271D01*
X11419443Y-11946129D01*
X11419443Y-11874700D01*
X11433728Y-11817557D01*
X11448014Y-11788986D01*
X11462300Y-11774700D01*
X11490871Y-11760414D01*
X11719443Y-12060414D02*
X11719443Y-11860414D01*
X11719443Y-11888986D02*
X11733728Y-11874700D01*
X11762300Y-11860414D01*
X11805157Y-11860414D01*
X11833728Y-11874700D01*
X11848014Y-11903271D01*
X11848014Y-12060414D01*
X11848014Y-11903271D02*
X11862300Y-11874700D01*
X11890871Y-11860414D01*
X11933728Y-11860414D01*
X11962300Y-11874700D01*
X11976586Y-11903271D01*
X11976586Y-12060414D01*
X12119443Y-12060414D02*
X12119443Y-11860414D01*
X12119443Y-11888986D02*
X12133728Y-11874700D01*
X12162300Y-11860414D01*
X12205157Y-11860414D01*
X12233728Y-11874700D01*
X12248014Y-11903271D01*
X12248014Y-12060414D01*
X12248014Y-11903271D02*
X12262300Y-11874700D01*
X12290871Y-11860414D01*
X12333728Y-11860414D01*
X12362300Y-11874700D01*
X12376586Y-11903271D01*
X12376586Y-12060414D01*
X12962300Y-11746129D02*
X12705157Y-12131843D01*
X13348014Y-11760414D02*
X13376586Y-11760414D01*
X13405157Y-11774700D01*
X13419443Y-11788986D01*
X13433728Y-11817557D01*
X13448014Y-11874700D01*
X13448014Y-11946129D01*
X13433728Y-12003271D01*
X13419443Y-12031843D01*
X13405157Y-12046129D01*
X13376586Y-12060414D01*
X13348014Y-12060414D01*
X13319443Y-12046129D01*
X13305157Y-12031843D01*
X13290871Y-12003271D01*
X13276586Y-11946129D01*
X13276586Y-11874700D01*
X13290871Y-11817557D01*
X13305157Y-11788986D01*
X13319443Y-11774700D01*
X13348014Y-11760414D01*
X13576586Y-12031843D02*
X13590871Y-12046129D01*
X13576586Y-12060414D01*
X13562300Y-12046129D01*
X13576586Y-12031843D01*
X13576586Y-12060414D01*
X13776586Y-11760414D02*
X13805157Y-11760414D01*
X13833728Y-11774700D01*
X13848014Y-11788986D01*
X13862300Y-11817557D01*
X13876586Y-11874700D01*
X13876586Y-11946129D01*
X13862300Y-12003271D01*
X13848014Y-12031843D01*
X13833728Y-12046129D01*
X13805157Y-12060414D01*
X13776586Y-12060414D01*
X13748014Y-12046129D01*
X13733728Y-12031843D01*
X13719443Y-12003271D01*
X13705157Y-11946129D01*
X13705157Y-11874700D01*
X13719443Y-11817557D01*
X13733728Y-11788986D01*
X13748014Y-11774700D01*
X13776586Y-11760414D01*
X13976586Y-11760414D02*
X14162300Y-11760414D01*
X14062300Y-11874700D01*
X14105157Y-11874700D01*
X14133728Y-11888986D01*
X14148014Y-11903271D01*
X14162300Y-11931843D01*
X14162300Y-12003271D01*
X14148014Y-12031843D01*
X14133728Y-12046129D01*
X14105157Y-12060414D01*
X14019443Y-12060414D01*
X13990871Y-12046129D01*
X13976586Y-12031843D01*
X14305157Y-12060414D02*
X14362300Y-12060414D01*
X14390871Y-12046129D01*
X14405157Y-12031843D01*
X14433728Y-11988986D01*
X14448014Y-11931843D01*
X14448014Y-11817557D01*
X14433728Y-11788986D01*
X14419443Y-11774700D01*
X14390871Y-11760414D01*
X14333728Y-11760414D01*
X14305157Y-11774700D01*
X14290871Y-11788986D01*
X14276586Y-11817557D01*
X14276586Y-11888986D01*
X14290871Y-11917557D01*
X14305157Y-11931843D01*
X14333728Y-11946129D01*
X14390871Y-11946129D01*
X14419443Y-11931843D01*
X14433728Y-11917557D01*
X14448014Y-11888986D01*
X14705157Y-11860414D02*
X14705157Y-12060414D01*
X14633728Y-11746129D02*
X14562300Y-11960414D01*
X14748014Y-11960414D01*
X14848014Y-11760414D02*
X14848014Y-11817557D01*
X14962300Y-11760414D02*
X14962300Y-11817557D01*
X15405157Y-12174700D02*
X15390871Y-12160414D01*
X15362300Y-12117557D01*
X15348014Y-12088986D01*
X15333728Y-12046129D01*
X15319443Y-11974700D01*
X15319443Y-11917557D01*
X15333728Y-11846129D01*
X15348014Y-11803271D01*
X15362300Y-11774700D01*
X15390871Y-11731843D01*
X15405157Y-11717557D01*
X15562300Y-11888986D02*
X15533728Y-11874700D01*
X15519443Y-11860414D01*
X15505157Y-11831843D01*
X15505157Y-11817557D01*
X15519443Y-11788986D01*
X15533728Y-11774700D01*
X15562300Y-11760414D01*
X15619443Y-11760414D01*
X15648014Y-11774700D01*
X15662300Y-11788986D01*
X15676586Y-11817557D01*
X15676586Y-11831843D01*
X15662300Y-11860414D01*
X15648014Y-11874700D01*
X15619443Y-11888986D01*
X15562300Y-11888986D01*
X15533728Y-11903271D01*
X15519443Y-11917557D01*
X15505157Y-11946129D01*
X15505157Y-12003271D01*
X15519443Y-12031843D01*
X15533728Y-12046129D01*
X15562300Y-12060414D01*
X15619443Y-12060414D01*
X15648014Y-12046129D01*
X15662300Y-12031843D01*
X15676586Y-12003271D01*
X15676586Y-11946129D01*
X15662300Y-11917557D01*
X15648014Y-11903271D01*
X15619443Y-11888986D01*
X16033728Y-12060414D02*
X16033728Y-11760414D01*
X16162300Y-12060414D02*
X16162300Y-11903271D01*
X16148014Y-11874700D01*
X16119443Y-11860414D01*
X16076586Y-11860414D01*
X16048014Y-11874700D01*
X16033728Y-11888986D01*
X16348014Y-12060414D02*
X16319443Y-12046129D01*
X16305157Y-12031843D01*
X16290871Y-12003271D01*
X16290871Y-11917557D01*
X16305157Y-11888986D01*
X16319443Y-11874700D01*
X16348014Y-11860414D01*
X16390871Y-11860414D01*
X16419443Y-11874700D01*
X16433728Y-11888986D01*
X16448014Y-11917557D01*
X16448014Y-12003271D01*
X16433728Y-12031843D01*
X16419443Y-12046129D01*
X16390871Y-12060414D01*
X16348014Y-12060414D01*
X16619443Y-12060414D02*
X16590871Y-12046129D01*
X16576586Y-12017557D01*
X16576586Y-11760414D01*
X16848014Y-12046129D02*
X16819443Y-12060414D01*
X16762300Y-12060414D01*
X16733728Y-12046129D01*
X16719443Y-12017557D01*
X16719443Y-11903271D01*
X16733728Y-11874700D01*
X16762300Y-11860414D01*
X16819443Y-11860414D01*
X16848014Y-11874700D01*
X16862300Y-11903271D01*
X16862300Y-11931843D01*
X16719443Y-11960414D01*
X16976586Y-12046129D02*
X17005157Y-12060414D01*
X17062300Y-12060414D01*
X17090871Y-12046129D01*
X17105157Y-12017557D01*
X17105157Y-12003271D01*
X17090871Y-11974700D01*
X17062300Y-11960414D01*
X17019443Y-11960414D01*
X16990871Y-11946129D01*
X16976586Y-11917557D01*
X16976586Y-11903271D01*
X16990871Y-11874700D01*
X17019443Y-11860414D01*
X17062300Y-11860414D01*
X17090871Y-11874700D01*
X17205157Y-12174700D02*
X17219443Y-12160414D01*
X17248014Y-12117557D01*
X17262300Y-12088986D01*
X17276586Y-12046129D01*
X17290871Y-11974700D01*
X17290871Y-11917557D01*
X17276586Y-11846129D01*
X17262300Y-11803271D01*
X17248014Y-11774700D01*
X17219443Y-11731843D01*
X17205157Y-11717557D01*
X10132421Y-12356621D02*
X10132421Y-12284779D01*
X10060579Y-12284779D01*
X10060579Y-12356621D01*
X10132421Y-12356621D01*
X10590871Y-12456414D02*
X10419443Y-12456414D01*
X10505157Y-12456414D02*
X10505157Y-12156414D01*
X10476586Y-12199271D01*
X10448014Y-12227843D01*
X10419443Y-12242129D01*
X10719443Y-12427843D02*
X10733728Y-12442129D01*
X10719443Y-12456414D01*
X10705157Y-12442129D01*
X10719443Y-12427843D01*
X10719443Y-12456414D01*
X10919443Y-12156414D02*
X10948014Y-12156414D01*
X10976586Y-12170700D01*
X10990871Y-12184986D01*
X11005157Y-12213557D01*
X11019443Y-12270700D01*
X11019443Y-12342129D01*
X11005157Y-12399271D01*
X10990871Y-12427843D01*
X10976586Y-12442129D01*
X10948014Y-12456414D01*
X10919443Y-12456414D01*
X10890871Y-12442129D01*
X10876586Y-12427843D01*
X10862300Y-12399271D01*
X10848014Y-12342129D01*
X10848014Y-12270700D01*
X10862300Y-12213557D01*
X10876586Y-12184986D01*
X10890871Y-12170700D01*
X10919443Y-12156414D01*
X11305157Y-12456414D02*
X11133728Y-12456414D01*
X11219443Y-12456414D02*
X11219443Y-12156414D01*
X11190871Y-12199271D01*
X11162300Y-12227843D01*
X11133728Y-12242129D01*
X11562300Y-12156414D02*
X11505157Y-12156414D01*
X11476586Y-12170700D01*
X11462300Y-12184986D01*
X11433728Y-12227843D01*
X11419443Y-12284986D01*
X11419443Y-12399271D01*
X11433728Y-12427843D01*
X11448014Y-12442129D01*
X11476586Y-12456414D01*
X11533728Y-12456414D01*
X11562300Y-12442129D01*
X11576586Y-12427843D01*
X11590871Y-12399271D01*
X11590871Y-12327843D01*
X11576586Y-12299271D01*
X11562300Y-12284986D01*
X11533728Y-12270700D01*
X11476586Y-12270700D01*
X11448014Y-12284986D01*
X11433728Y-12299271D01*
X11419443Y-12327843D01*
X11719443Y-12456414D02*
X11719443Y-12256414D01*
X11719443Y-12284986D02*
X11733728Y-12270700D01*
X11762300Y-12256414D01*
X11805157Y-12256414D01*
X11833728Y-12270700D01*
X11848014Y-12299271D01*
X11848014Y-12456414D01*
X11848014Y-12299271D02*
X11862300Y-12270700D01*
X11890871Y-12256414D01*
X11933728Y-12256414D01*
X11962300Y-12270700D01*
X11976586Y-12299271D01*
X11976586Y-12456414D01*
X12119443Y-12456414D02*
X12119443Y-12256414D01*
X12119443Y-12284986D02*
X12133728Y-12270700D01*
X12162300Y-12256414D01*
X12205157Y-12256414D01*
X12233728Y-12270700D01*
X12248014Y-12299271D01*
X12248014Y-12456414D01*
X12248014Y-12299271D02*
X12262300Y-12270700D01*
X12290871Y-12256414D01*
X12333728Y-12256414D01*
X12362300Y-12270700D01*
X12376586Y-12299271D01*
X12376586Y-12456414D01*
X12962300Y-12142129D02*
X12705157Y-12527843D01*
X13348014Y-12156414D02*
X13376586Y-12156414D01*
X13405157Y-12170700D01*
X13419443Y-12184986D01*
X13433728Y-12213557D01*
X13448014Y-12270700D01*
X13448014Y-12342129D01*
X13433728Y-12399271D01*
X13419443Y-12427843D01*
X13405157Y-12442129D01*
X13376586Y-12456414D01*
X13348014Y-12456414D01*
X13319443Y-12442129D01*
X13305157Y-12427843D01*
X13290871Y-12399271D01*
X13276586Y-12342129D01*
X13276586Y-12270700D01*
X13290871Y-12213557D01*
X13305157Y-12184986D01*
X13319443Y-12170700D01*
X13348014Y-12156414D01*
X13576586Y-12427843D02*
X13590871Y-12442129D01*
X13576586Y-12456414D01*
X13562300Y-12442129D01*
X13576586Y-12427843D01*
X13576586Y-12456414D01*
X13776586Y-12156414D02*
X13805157Y-12156414D01*
X13833728Y-12170700D01*
X13848014Y-12184986D01*
X13862300Y-12213557D01*
X13876586Y-12270700D01*
X13876586Y-12342129D01*
X13862300Y-12399271D01*
X13848014Y-12427843D01*
X13833728Y-12442129D01*
X13805157Y-12456414D01*
X13776586Y-12456414D01*
X13748014Y-12442129D01*
X13733728Y-12427843D01*
X13719443Y-12399271D01*
X13705157Y-12342129D01*
X13705157Y-12270700D01*
X13719443Y-12213557D01*
X13733728Y-12184986D01*
X13748014Y-12170700D01*
X13776586Y-12156414D01*
X14133728Y-12256414D02*
X14133728Y-12456414D01*
X14062300Y-12142129D02*
X13990871Y-12356414D01*
X14176586Y-12356414D01*
X14348014Y-12156414D02*
X14376586Y-12156414D01*
X14405157Y-12170700D01*
X14419443Y-12184986D01*
X14433728Y-12213557D01*
X14448014Y-12270700D01*
X14448014Y-12342129D01*
X14433728Y-12399271D01*
X14419443Y-12427843D01*
X14405157Y-12442129D01*
X14376586Y-12456414D01*
X14348014Y-12456414D01*
X14319443Y-12442129D01*
X14305157Y-12427843D01*
X14290871Y-12399271D01*
X14276586Y-12342129D01*
X14276586Y-12270700D01*
X14290871Y-12213557D01*
X14305157Y-12184986D01*
X14319443Y-12170700D01*
X14348014Y-12156414D01*
X14633728Y-12156414D02*
X14662300Y-12156414D01*
X14690871Y-12170700D01*
X14705157Y-12184986D01*
X14719443Y-12213557D01*
X14733728Y-12270700D01*
X14733728Y-12342129D01*
X14719443Y-12399271D01*
X14705157Y-12427843D01*
X14690871Y-12442129D01*
X14662300Y-12456414D01*
X14633728Y-12456414D01*
X14605157Y-12442129D01*
X14590871Y-12427843D01*
X14576586Y-12399271D01*
X14562300Y-12342129D01*
X14562300Y-12270700D01*
X14576586Y-12213557D01*
X14590871Y-12184986D01*
X14605157Y-12170700D01*
X14633728Y-12156414D01*
X14848014Y-12156414D02*
X14848014Y-12213557D01*
X14962300Y-12156414D02*
X14962300Y-12213557D01*
X15405157Y-12570700D02*
X15390871Y-12556414D01*
X15362300Y-12513557D01*
X15348014Y-12484986D01*
X15333728Y-12442129D01*
X15319443Y-12370700D01*
X15319443Y-12313557D01*
X15333728Y-12242129D01*
X15348014Y-12199271D01*
X15362300Y-12170700D01*
X15390871Y-12127843D01*
X15405157Y-12113557D01*
X15648014Y-12156414D02*
X15590871Y-12156414D01*
X15562300Y-12170700D01*
X15548014Y-12184986D01*
X15519443Y-12227843D01*
X15505157Y-12284986D01*
X15505157Y-12399271D01*
X15519443Y-12427843D01*
X15533728Y-12442129D01*
X15562300Y-12456414D01*
X15619443Y-12456414D01*
X15648014Y-12442129D01*
X15662300Y-12427843D01*
X15676586Y-12399271D01*
X15676586Y-12327843D01*
X15662300Y-12299271D01*
X15648014Y-12284986D01*
X15619443Y-12270700D01*
X15562300Y-12270700D01*
X15533728Y-12284986D01*
X15519443Y-12299271D01*
X15505157Y-12327843D01*
X16033728Y-12456414D02*
X16033728Y-12156414D01*
X16162300Y-12456414D02*
X16162300Y-12299271D01*
X16148014Y-12270700D01*
X16119443Y-12256414D01*
X16076586Y-12256414D01*
X16048014Y-12270700D01*
X16033728Y-12284986D01*
X16348014Y-12456414D02*
X16319443Y-12442129D01*
X16305157Y-12427843D01*
X16290871Y-12399271D01*
X16290871Y-12313557D01*
X16305157Y-12284986D01*
X16319443Y-12270700D01*
X16348014Y-12256414D01*
X16390871Y-12256414D01*
X16419443Y-12270700D01*
X16433728Y-12284986D01*
X16448014Y-12313557D01*
X16448014Y-12399271D01*
X16433728Y-12427843D01*
X16419443Y-12442129D01*
X16390871Y-12456414D01*
X16348014Y-12456414D01*
X16619443Y-12456414D02*
X16590871Y-12442129D01*
X16576586Y-12413557D01*
X16576586Y-12156414D01*
X16848014Y-12442129D02*
X16819443Y-12456414D01*
X16762300Y-12456414D01*
X16733728Y-12442129D01*
X16719443Y-12413557D01*
X16719443Y-12299271D01*
X16733728Y-12270700D01*
X16762300Y-12256414D01*
X16819443Y-12256414D01*
X16848014Y-12270700D01*
X16862300Y-12299271D01*
X16862300Y-12327843D01*
X16719443Y-12356414D01*
X16976586Y-12442129D02*
X17005157Y-12456414D01*
X17062300Y-12456414D01*
X17090871Y-12442129D01*
X17105157Y-12413557D01*
X17105157Y-12399271D01*
X17090871Y-12370700D01*
X17062300Y-12356414D01*
X17019443Y-12356414D01*
X16990871Y-12342129D01*
X16976586Y-12313557D01*
X16976586Y-12299271D01*
X16990871Y-12270700D01*
X17019443Y-12256414D01*
X17062300Y-12256414D01*
X17090871Y-12270700D01*
X17205157Y-12570700D02*
X17219443Y-12556414D01*
X17248014Y-12513557D01*
X17262300Y-12484986D01*
X17276586Y-12442129D01*
X17290871Y-12370700D01*
X17290871Y-12313557D01*
X17276586Y-12242129D01*
X17262300Y-12199271D01*
X17248014Y-12170700D01*
X17219443Y-12127843D01*
X17205157Y-12113557D01*
X10092300Y-12771700D02*
X10147300Y-12716700D01*
X10092300Y-12661700D01*
X10037300Y-12716700D01*
X10092300Y-12771700D01*
X10590871Y-12852414D02*
X10419443Y-12852414D01*
X10505157Y-12852414D02*
X10505157Y-12552414D01*
X10476586Y-12595271D01*
X10448014Y-12623843D01*
X10419443Y-12638129D01*
X10719443Y-12823843D02*
X10733728Y-12838129D01*
X10719443Y-12852414D01*
X10705157Y-12838129D01*
X10719443Y-12823843D01*
X10719443Y-12852414D01*
X11019443Y-12852414D02*
X10848014Y-12852414D01*
X10933728Y-12852414D02*
X10933728Y-12552414D01*
X10905157Y-12595271D01*
X10876586Y-12623843D01*
X10848014Y-12638129D01*
X11205157Y-12552414D02*
X11233728Y-12552414D01*
X11262300Y-12566700D01*
X11276586Y-12580986D01*
X11290871Y-12609557D01*
X11305157Y-12666700D01*
X11305157Y-12738129D01*
X11290871Y-12795271D01*
X11276586Y-12823843D01*
X11262300Y-12838129D01*
X11233728Y-12852414D01*
X11205157Y-12852414D01*
X11176586Y-12838129D01*
X11162300Y-12823843D01*
X11148014Y-12795271D01*
X11133728Y-12738129D01*
X11133728Y-12666700D01*
X11148014Y-12609557D01*
X11162300Y-12580986D01*
X11176586Y-12566700D01*
X11205157Y-12552414D01*
X11490871Y-12552414D02*
X11519443Y-12552414D01*
X11548014Y-12566700D01*
X11562300Y-12580986D01*
X11576586Y-12609557D01*
X11590871Y-12666700D01*
X11590871Y-12738129D01*
X11576586Y-12795271D01*
X11562300Y-12823843D01*
X11548014Y-12838129D01*
X11519443Y-12852414D01*
X11490871Y-12852414D01*
X11462300Y-12838129D01*
X11448014Y-12823843D01*
X11433728Y-12795271D01*
X11419443Y-12738129D01*
X11419443Y-12666700D01*
X11433728Y-12609557D01*
X11448014Y-12580986D01*
X11462300Y-12566700D01*
X11490871Y-12552414D01*
X11719443Y-12852414D02*
X11719443Y-12652414D01*
X11719443Y-12680986D02*
X11733728Y-12666700D01*
X11762300Y-12652414D01*
X11805157Y-12652414D01*
X11833728Y-12666700D01*
X11848014Y-12695271D01*
X11848014Y-12852414D01*
X11848014Y-12695271D02*
X11862300Y-12666700D01*
X11890871Y-12652414D01*
X11933728Y-12652414D01*
X11962300Y-12666700D01*
X11976586Y-12695271D01*
X11976586Y-12852414D01*
X12119443Y-12852414D02*
X12119443Y-12652414D01*
X12119443Y-12680986D02*
X12133728Y-12666700D01*
X12162300Y-12652414D01*
X12205157Y-12652414D01*
X12233728Y-12666700D01*
X12248014Y-12695271D01*
X12248014Y-12852414D01*
X12248014Y-12695271D02*
X12262300Y-12666700D01*
X12290871Y-12652414D01*
X12333728Y-12652414D01*
X12362300Y-12666700D01*
X12376586Y-12695271D01*
X12376586Y-12852414D01*
X12962300Y-12538129D02*
X12705157Y-12923843D01*
X13348014Y-12552414D02*
X13376586Y-12552414D01*
X13405157Y-12566700D01*
X13419443Y-12580986D01*
X13433728Y-12609557D01*
X13448014Y-12666700D01*
X13448014Y-12738129D01*
X13433728Y-12795271D01*
X13419443Y-12823843D01*
X13405157Y-12838129D01*
X13376586Y-12852414D01*
X13348014Y-12852414D01*
X13319443Y-12838129D01*
X13305157Y-12823843D01*
X13290871Y-12795271D01*
X13276586Y-12738129D01*
X13276586Y-12666700D01*
X13290871Y-12609557D01*
X13305157Y-12580986D01*
X13319443Y-12566700D01*
X13348014Y-12552414D01*
X13576586Y-12823843D02*
X13590871Y-12838129D01*
X13576586Y-12852414D01*
X13562300Y-12838129D01*
X13576586Y-12823843D01*
X13576586Y-12852414D01*
X13776586Y-12552414D02*
X13805157Y-12552414D01*
X13833728Y-12566700D01*
X13848014Y-12580986D01*
X13862300Y-12609557D01*
X13876586Y-12666700D01*
X13876586Y-12738129D01*
X13862300Y-12795271D01*
X13848014Y-12823843D01*
X13833728Y-12838129D01*
X13805157Y-12852414D01*
X13776586Y-12852414D01*
X13748014Y-12838129D01*
X13733728Y-12823843D01*
X13719443Y-12795271D01*
X13705157Y-12738129D01*
X13705157Y-12666700D01*
X13719443Y-12609557D01*
X13733728Y-12580986D01*
X13748014Y-12566700D01*
X13776586Y-12552414D01*
X14133728Y-12652414D02*
X14133728Y-12852414D01*
X14062300Y-12538129D02*
X13990871Y-12752414D01*
X14176586Y-12752414D01*
X14262300Y-12552414D02*
X14448014Y-12552414D01*
X14348014Y-12666700D01*
X14390871Y-12666700D01*
X14419443Y-12680986D01*
X14433728Y-12695271D01*
X14448014Y-12723843D01*
X14448014Y-12795271D01*
X14433728Y-12823843D01*
X14419443Y-12838129D01*
X14390871Y-12852414D01*
X14305157Y-12852414D01*
X14276586Y-12838129D01*
X14262300Y-12823843D01*
X14548014Y-12552414D02*
X14733728Y-12552414D01*
X14633728Y-12666700D01*
X14676586Y-12666700D01*
X14705157Y-12680986D01*
X14719443Y-12695271D01*
X14733728Y-12723843D01*
X14733728Y-12795271D01*
X14719443Y-12823843D01*
X14705157Y-12838129D01*
X14676586Y-12852414D01*
X14590871Y-12852414D01*
X14562300Y-12838129D01*
X14548014Y-12823843D01*
X14848014Y-12552414D02*
X14848014Y-12609557D01*
X14962300Y-12552414D02*
X14962300Y-12609557D01*
X15405157Y-12966700D02*
X15390871Y-12952414D01*
X15362300Y-12909557D01*
X15348014Y-12880986D01*
X15333728Y-12838129D01*
X15319443Y-12766700D01*
X15319443Y-12709557D01*
X15333728Y-12638129D01*
X15348014Y-12595271D01*
X15362300Y-12566700D01*
X15390871Y-12523843D01*
X15405157Y-12509557D01*
X15490871Y-12552414D02*
X15676586Y-12552414D01*
X15576586Y-12666700D01*
X15619443Y-12666700D01*
X15648014Y-12680986D01*
X15662300Y-12695271D01*
X15676586Y-12723843D01*
X15676586Y-12795271D01*
X15662300Y-12823843D01*
X15648014Y-12838129D01*
X15619443Y-12852414D01*
X15533728Y-12852414D01*
X15505157Y-12838129D01*
X15490871Y-12823843D01*
X16033728Y-12852414D02*
X16033728Y-12552414D01*
X16162300Y-12852414D02*
X16162300Y-12695271D01*
X16148014Y-12666700D01*
X16119443Y-12652414D01*
X16076586Y-12652414D01*
X16048014Y-12666700D01*
X16033728Y-12680986D01*
X16348014Y-12852414D02*
X16319443Y-12838129D01*
X16305157Y-12823843D01*
X16290871Y-12795271D01*
X16290871Y-12709557D01*
X16305157Y-12680986D01*
X16319443Y-12666700D01*
X16348014Y-12652414D01*
X16390871Y-12652414D01*
X16419443Y-12666700D01*
X16433728Y-12680986D01*
X16448014Y-12709557D01*
X16448014Y-12795271D01*
X16433728Y-12823843D01*
X16419443Y-12838129D01*
X16390871Y-12852414D01*
X16348014Y-12852414D01*
X16619443Y-12852414D02*
X16590871Y-12838129D01*
X16576586Y-12809557D01*
X16576586Y-12552414D01*
X16848014Y-12838129D02*
X16819443Y-12852414D01*
X16762300Y-12852414D01*
X16733728Y-12838129D01*
X16719443Y-12809557D01*
X16719443Y-12695271D01*
X16733728Y-12666700D01*
X16762300Y-12652414D01*
X16819443Y-12652414D01*
X16848014Y-12666700D01*
X16862300Y-12695271D01*
X16862300Y-12723843D01*
X16719443Y-12752414D01*
X16976586Y-12838129D02*
X17005157Y-12852414D01*
X17062300Y-12852414D01*
X17090871Y-12838129D01*
X17105157Y-12809557D01*
X17105157Y-12795271D01*
X17090871Y-12766700D01*
X17062300Y-12752414D01*
X17019443Y-12752414D01*
X16990871Y-12738129D01*
X16976586Y-12709557D01*
X16976586Y-12695271D01*
X16990871Y-12666700D01*
X17019443Y-12652414D01*
X17062300Y-12652414D01*
X17090871Y-12666700D01*
X17205157Y-12966700D02*
X17219443Y-12952414D01*
X17248014Y-12909557D01*
X17262300Y-12880986D01*
X17276586Y-12838129D01*
X17290871Y-12766700D01*
X17290871Y-12709557D01*
X17276586Y-12638129D01*
X17262300Y-12595271D01*
X17248014Y-12566700D01*
X17219443Y-12523843D01*
X17205157Y-12509557D01*
X9797300Y-12937700D02*
X10147300Y-13287700D01*
X10147300Y-12937700D02*
X9797300Y-13287700D01*
X10147300Y-13112700D02*
G75*
G03*
X10147300Y-13112700I-175000J0D01*
G01*
X10405157Y-12948414D02*
X10590871Y-12948414D01*
X10490871Y-13062700D01*
X10533728Y-13062700D01*
X10562300Y-13076986D01*
X10576586Y-13091271D01*
X10590871Y-13119843D01*
X10590871Y-13191271D01*
X10576586Y-13219843D01*
X10562300Y-13234129D01*
X10533728Y-13248414D01*
X10448014Y-13248414D01*
X10419443Y-13234129D01*
X10405157Y-13219843D01*
X10719443Y-13219843D02*
X10733728Y-13234129D01*
X10719443Y-13248414D01*
X10705157Y-13234129D01*
X10719443Y-13219843D01*
X10719443Y-13248414D01*
X11005157Y-12948414D02*
X10862300Y-12948414D01*
X10848014Y-13091271D01*
X10862300Y-13076986D01*
X10890871Y-13062700D01*
X10962300Y-13062700D01*
X10990871Y-13076986D01*
X11005157Y-13091271D01*
X11019443Y-13119843D01*
X11019443Y-13191271D01*
X11005157Y-13219843D01*
X10990871Y-13234129D01*
X10962300Y-13248414D01*
X10890871Y-13248414D01*
X10862300Y-13234129D01*
X10848014Y-13219843D01*
X11205157Y-12948414D02*
X11233728Y-12948414D01*
X11262300Y-12962700D01*
X11276586Y-12976986D01*
X11290871Y-13005557D01*
X11305157Y-13062700D01*
X11305157Y-13134129D01*
X11290871Y-13191271D01*
X11276586Y-13219843D01*
X11262300Y-13234129D01*
X11233728Y-13248414D01*
X11205157Y-13248414D01*
X11176586Y-13234129D01*
X11162300Y-13219843D01*
X11148014Y-13191271D01*
X11133728Y-13134129D01*
X11133728Y-13062700D01*
X11148014Y-13005557D01*
X11162300Y-12976986D01*
X11176586Y-12962700D01*
X11205157Y-12948414D01*
X11490871Y-12948414D02*
X11519443Y-12948414D01*
X11548014Y-12962700D01*
X11562300Y-12976986D01*
X11576586Y-13005557D01*
X11590871Y-13062700D01*
X11590871Y-13134129D01*
X11576586Y-13191271D01*
X11562300Y-13219843D01*
X11548014Y-13234129D01*
X11519443Y-13248414D01*
X11490871Y-13248414D01*
X11462300Y-13234129D01*
X11448014Y-13219843D01*
X11433728Y-13191271D01*
X11419443Y-13134129D01*
X11419443Y-13062700D01*
X11433728Y-13005557D01*
X11448014Y-12976986D01*
X11462300Y-12962700D01*
X11490871Y-12948414D01*
X11719443Y-13248414D02*
X11719443Y-13048414D01*
X11719443Y-13076986D02*
X11733728Y-13062700D01*
X11762300Y-13048414D01*
X11805157Y-13048414D01*
X11833728Y-13062700D01*
X11848014Y-13091271D01*
X11848014Y-13248414D01*
X11848014Y-13091271D02*
X11862300Y-13062700D01*
X11890871Y-13048414D01*
X11933728Y-13048414D01*
X11962300Y-13062700D01*
X11976586Y-13091271D01*
X11976586Y-13248414D01*
X12119443Y-13248414D02*
X12119443Y-13048414D01*
X12119443Y-13076986D02*
X12133728Y-13062700D01*
X12162300Y-13048414D01*
X12205157Y-13048414D01*
X12233728Y-13062700D01*
X12248014Y-13091271D01*
X12248014Y-13248414D01*
X12248014Y-13091271D02*
X12262300Y-13062700D01*
X12290871Y-13048414D01*
X12333728Y-13048414D01*
X12362300Y-13062700D01*
X12376586Y-13091271D01*
X12376586Y-13248414D01*
X12962300Y-12934129D02*
X12705157Y-13319843D01*
X13348014Y-12948414D02*
X13376586Y-12948414D01*
X13405157Y-12962700D01*
X13419443Y-12976986D01*
X13433728Y-13005557D01*
X13448014Y-13062700D01*
X13448014Y-13134129D01*
X13433728Y-13191271D01*
X13419443Y-13219843D01*
X13405157Y-13234129D01*
X13376586Y-13248414D01*
X13348014Y-13248414D01*
X13319443Y-13234129D01*
X13305157Y-13219843D01*
X13290871Y-13191271D01*
X13276586Y-13134129D01*
X13276586Y-13062700D01*
X13290871Y-13005557D01*
X13305157Y-12976986D01*
X13319443Y-12962700D01*
X13348014Y-12948414D01*
X13576586Y-13219843D02*
X13590871Y-13234129D01*
X13576586Y-13248414D01*
X13562300Y-13234129D01*
X13576586Y-13219843D01*
X13576586Y-13248414D01*
X13876586Y-13248414D02*
X13705157Y-13248414D01*
X13790871Y-13248414D02*
X13790871Y-12948414D01*
X13762300Y-12991271D01*
X13733728Y-13019843D01*
X13705157Y-13034129D01*
X13976586Y-12948414D02*
X14162300Y-12948414D01*
X14062300Y-13062700D01*
X14105157Y-13062700D01*
X14133728Y-13076986D01*
X14148014Y-13091271D01*
X14162300Y-13119843D01*
X14162300Y-13191271D01*
X14148014Y-13219843D01*
X14133728Y-13234129D01*
X14105157Y-13248414D01*
X14019443Y-13248414D01*
X13990871Y-13234129D01*
X13976586Y-13219843D01*
X14262300Y-12948414D02*
X14462300Y-12948414D01*
X14333728Y-13248414D01*
X14619443Y-13076986D02*
X14590871Y-13062700D01*
X14576586Y-13048414D01*
X14562300Y-13019843D01*
X14562300Y-13005557D01*
X14576586Y-12976986D01*
X14590871Y-12962700D01*
X14619443Y-12948414D01*
X14676586Y-12948414D01*
X14705157Y-12962700D01*
X14719443Y-12976986D01*
X14733728Y-13005557D01*
X14733728Y-13019843D01*
X14719443Y-13048414D01*
X14705157Y-13062700D01*
X14676586Y-13076986D01*
X14619443Y-13076986D01*
X14590871Y-13091271D01*
X14576586Y-13105557D01*
X14562300Y-13134129D01*
X14562300Y-13191271D01*
X14576586Y-13219843D01*
X14590871Y-13234129D01*
X14619443Y-13248414D01*
X14676586Y-13248414D01*
X14705157Y-13234129D01*
X14719443Y-13219843D01*
X14733728Y-13191271D01*
X14733728Y-13134129D01*
X14719443Y-13105557D01*
X14705157Y-13091271D01*
X14676586Y-13076986D01*
X14848014Y-12948414D02*
X14848014Y-13005557D01*
X14962300Y-12948414D02*
X14962300Y-13005557D01*
X15405157Y-13362700D02*
X15390871Y-13348414D01*
X15362300Y-13305557D01*
X15348014Y-13276986D01*
X15333728Y-13234129D01*
X15319443Y-13162700D01*
X15319443Y-13105557D01*
X15333728Y-13034129D01*
X15348014Y-12991271D01*
X15362300Y-12962700D01*
X15390871Y-12919843D01*
X15405157Y-12905557D01*
X15505157Y-12976986D02*
X15519443Y-12962700D01*
X15548014Y-12948414D01*
X15619443Y-12948414D01*
X15648014Y-12962700D01*
X15662300Y-12976986D01*
X15676586Y-13005557D01*
X15676586Y-13034129D01*
X15662300Y-13076986D01*
X15490871Y-13248414D01*
X15676586Y-13248414D01*
X16033728Y-13248414D02*
X16033728Y-12948414D01*
X16162300Y-13248414D02*
X16162300Y-13091271D01*
X16148014Y-13062700D01*
X16119443Y-13048414D01*
X16076586Y-13048414D01*
X16048014Y-13062700D01*
X16033728Y-13076986D01*
X16348014Y-13248414D02*
X16319443Y-13234129D01*
X16305157Y-13219843D01*
X16290871Y-13191271D01*
X16290871Y-13105557D01*
X16305157Y-13076986D01*
X16319443Y-13062700D01*
X16348014Y-13048414D01*
X16390871Y-13048414D01*
X16419443Y-13062700D01*
X16433728Y-13076986D01*
X16448014Y-13105557D01*
X16448014Y-13191271D01*
X16433728Y-13219843D01*
X16419443Y-13234129D01*
X16390871Y-13248414D01*
X16348014Y-13248414D01*
X16619443Y-13248414D02*
X16590871Y-13234129D01*
X16576586Y-13205557D01*
X16576586Y-12948414D01*
X16848014Y-13234129D02*
X16819443Y-13248414D01*
X16762300Y-13248414D01*
X16733728Y-13234129D01*
X16719443Y-13205557D01*
X16719443Y-13091271D01*
X16733728Y-13062700D01*
X16762300Y-13048414D01*
X16819443Y-13048414D01*
X16848014Y-13062700D01*
X16862300Y-13091271D01*
X16862300Y-13119843D01*
X16719443Y-13148414D01*
X16976586Y-13234129D02*
X17005157Y-13248414D01*
X17062300Y-13248414D01*
X17090871Y-13234129D01*
X17105157Y-13205557D01*
X17105157Y-13191271D01*
X17090871Y-13162700D01*
X17062300Y-13148414D01*
X17019443Y-13148414D01*
X16990871Y-13134129D01*
X16976586Y-13105557D01*
X16976586Y-13091271D01*
X16990871Y-13062700D01*
X17019443Y-13048414D01*
X17062300Y-13048414D01*
X17090871Y-13062700D01*
X17205157Y-13362700D02*
X17219443Y-13348414D01*
X17248014Y-13305557D01*
X17262300Y-13276986D01*
X17276586Y-13234129D01*
X17290871Y-13162700D01*
X17290871Y-13105557D01*
X17276586Y-13034129D01*
X17262300Y-12991271D01*
X17248014Y-12962700D01*
X17219443Y-12919843D01*
X17205157Y-12905557D01*
M02*
